G04 #@! TF.GenerationSoftware,KiCad,Pcbnew,5.0.2-bee76a0~70~ubuntu18.04.1*
G04 #@! TF.CreationDate,2019-01-08T18:58:55+02:00*
G04 #@! TF.ProjectId,HScope_2018_10_L,4853636f-7065-45f3-9230-31385f31305f,rev?*
G04 #@! TF.SameCoordinates,Original*
G04 #@! TF.FileFunction,Soldermask,Top*
G04 #@! TF.FilePolarity,Negative*
%FSLAX46Y46*%
G04 Gerber Fmt 4.6, Leading zero omitted, Abs format (unit mm)*
G04 Created by KiCad (PCBNEW 5.0.2-bee76a0~70~ubuntu18.04.1) date Вт 08 янв 2019 18:58:55*
%MOMM*%
%LPD*%
G01*
G04 APERTURE LIST*
%ADD10C,0.100000*%
G04 APERTURE END LIST*
D10*
G36*
X69089628Y-71850493D02*
X69137354Y-71864970D01*
X69181336Y-71888479D01*
X69219885Y-71920115D01*
X69251521Y-71958664D01*
X69275030Y-72002646D01*
X69289507Y-72050372D01*
X69295000Y-72106141D01*
X69295000Y-73733859D01*
X69289507Y-73789628D01*
X69275030Y-73837354D01*
X69251521Y-73881336D01*
X69219885Y-73919885D01*
X69181336Y-73951521D01*
X69137354Y-73975030D01*
X69089628Y-73989507D01*
X69033859Y-73995000D01*
X67906141Y-73995000D01*
X67850372Y-73989507D01*
X67802646Y-73975030D01*
X67758664Y-73951521D01*
X67720115Y-73919885D01*
X67688479Y-73881336D01*
X67664970Y-73837354D01*
X67650493Y-73789628D01*
X67645000Y-73733859D01*
X67645000Y-72106141D01*
X67650493Y-72050372D01*
X67664970Y-72002646D01*
X67688479Y-71958664D01*
X67720115Y-71920115D01*
X67758664Y-71888479D01*
X67802646Y-71864970D01*
X67850372Y-71850493D01*
X67906141Y-71845000D01*
X69033859Y-71845000D01*
X69089628Y-71850493D01*
X69089628Y-71850493D01*
G37*
G36*
X66289628Y-71850493D02*
X66337354Y-71864970D01*
X66381336Y-71888479D01*
X66419885Y-71920115D01*
X66451521Y-71958664D01*
X66475030Y-72002646D01*
X66489507Y-72050372D01*
X66495000Y-72106141D01*
X66495000Y-73733859D01*
X66489507Y-73789628D01*
X66475030Y-73837354D01*
X66451521Y-73881336D01*
X66419885Y-73919885D01*
X66381336Y-73951521D01*
X66337354Y-73975030D01*
X66289628Y-73989507D01*
X66233859Y-73995000D01*
X65106141Y-73995000D01*
X65050372Y-73989507D01*
X65002646Y-73975030D01*
X64958664Y-73951521D01*
X64920115Y-73919885D01*
X64888479Y-73881336D01*
X64864970Y-73837354D01*
X64850493Y-73789628D01*
X64845000Y-73733859D01*
X64845000Y-72106141D01*
X64850493Y-72050372D01*
X64864970Y-72002646D01*
X64888479Y-71958664D01*
X64920115Y-71920115D01*
X64958664Y-71888479D01*
X65002646Y-71864970D01*
X65050372Y-71850493D01*
X65106141Y-71845000D01*
X66233859Y-71845000D01*
X66289628Y-71850493D01*
X66289628Y-71850493D01*
G37*
G36*
X94801122Y-67850517D02*
X94849085Y-67865066D01*
X94893275Y-67888686D01*
X94932018Y-67920482D01*
X94963814Y-67959225D01*
X94987434Y-68003415D01*
X95001983Y-68051378D01*
X95007500Y-68107391D01*
X95007500Y-68932609D01*
X95001983Y-68988622D01*
X94987434Y-69036585D01*
X94963814Y-69080775D01*
X94932018Y-69119518D01*
X94893275Y-69151314D01*
X94849085Y-69174934D01*
X94798158Y-69190382D01*
X94775519Y-69199760D01*
X94755144Y-69213373D01*
X94737817Y-69230700D01*
X94724203Y-69251075D01*
X94714826Y-69273714D01*
X94710045Y-69297747D01*
X94710045Y-69322251D01*
X94714825Y-69346285D01*
X94724203Y-69368924D01*
X94737816Y-69389299D01*
X94755143Y-69406626D01*
X94775518Y-69420240D01*
X94798157Y-69429617D01*
X94822190Y-69434398D01*
X94834443Y-69435000D01*
X95173859Y-69435000D01*
X95229628Y-69440493D01*
X95277354Y-69454970D01*
X95321336Y-69478479D01*
X95359885Y-69510115D01*
X95391521Y-69548664D01*
X95415030Y-69592646D01*
X95429507Y-69640372D01*
X95435000Y-69696141D01*
X95435000Y-71323859D01*
X95429507Y-71379628D01*
X95415030Y-71427354D01*
X95391521Y-71471336D01*
X95359885Y-71509885D01*
X95321336Y-71541521D01*
X95277354Y-71565030D01*
X95229628Y-71579507D01*
X95167747Y-71585602D01*
X95143714Y-71590383D01*
X95121075Y-71599760D01*
X95100700Y-71613374D01*
X95083373Y-71630701D01*
X95069759Y-71651076D01*
X95060382Y-71673715D01*
X95055602Y-71697749D01*
X95055602Y-71722253D01*
X95060383Y-71746286D01*
X95069760Y-71768925D01*
X95083374Y-71789300D01*
X95100701Y-71806627D01*
X95121076Y-71820241D01*
X95143715Y-71829618D01*
X95180000Y-71835000D01*
X95633859Y-71835000D01*
X95689628Y-71840493D01*
X95737354Y-71854970D01*
X95781336Y-71878479D01*
X95819885Y-71910115D01*
X95851521Y-71948664D01*
X95875030Y-71992646D01*
X95889507Y-72040372D01*
X95895000Y-72096141D01*
X95895000Y-73723859D01*
X95889507Y-73779628D01*
X95875030Y-73827354D01*
X95851521Y-73871336D01*
X95819885Y-73909885D01*
X95781336Y-73941521D01*
X95737354Y-73965030D01*
X95689628Y-73979507D01*
X95633859Y-73985000D01*
X94506141Y-73985000D01*
X94450372Y-73979507D01*
X94402646Y-73965030D01*
X94358664Y-73941521D01*
X94320115Y-73909885D01*
X94288479Y-73871336D01*
X94264970Y-73827354D01*
X94250493Y-73779628D01*
X94245000Y-73723859D01*
X94245000Y-72096141D01*
X94250493Y-72040372D01*
X94264970Y-71992646D01*
X94288479Y-71948664D01*
X94320115Y-71910115D01*
X94358664Y-71878479D01*
X94402646Y-71854970D01*
X94450372Y-71840493D01*
X94512253Y-71834398D01*
X94536286Y-71829617D01*
X94558925Y-71820240D01*
X94579300Y-71806626D01*
X94596627Y-71789299D01*
X94610241Y-71768924D01*
X94619618Y-71746285D01*
X94624398Y-71722251D01*
X94624398Y-71697747D01*
X94619617Y-71673714D01*
X94610240Y-71651075D01*
X94596626Y-71630700D01*
X94579299Y-71613373D01*
X94558924Y-71599759D01*
X94536285Y-71590382D01*
X94500000Y-71585000D01*
X94046141Y-71585000D01*
X93990372Y-71579507D01*
X93942646Y-71565030D01*
X93898664Y-71541521D01*
X93860115Y-71509885D01*
X93828479Y-71471336D01*
X93804970Y-71427354D01*
X93790493Y-71379628D01*
X93784398Y-71317747D01*
X93779617Y-71293714D01*
X93770240Y-71271075D01*
X93756626Y-71250700D01*
X93739299Y-71233373D01*
X93718924Y-71219759D01*
X93696285Y-71210382D01*
X93672251Y-71205602D01*
X93647747Y-71205602D01*
X93623714Y-71210383D01*
X93601075Y-71219760D01*
X93580700Y-71233374D01*
X93563373Y-71250701D01*
X93549759Y-71271076D01*
X93540382Y-71293715D01*
X93535000Y-71330000D01*
X93535000Y-71343859D01*
X93529507Y-71399628D01*
X93515030Y-71447354D01*
X93491521Y-71491336D01*
X93459885Y-71529885D01*
X93421336Y-71561521D01*
X93377354Y-71585030D01*
X93329628Y-71599507D01*
X93273859Y-71605000D01*
X92955994Y-71605000D01*
X92931608Y-71607402D01*
X92908159Y-71614515D01*
X92886548Y-71626066D01*
X92867606Y-71641612D01*
X92852060Y-71660554D01*
X92840509Y-71682165D01*
X92833396Y-71705614D01*
X92830994Y-71730000D01*
X92833396Y-71754386D01*
X92840509Y-71777835D01*
X92852060Y-71799446D01*
X92867606Y-71818388D01*
X92886548Y-71833934D01*
X92908159Y-71845485D01*
X92919709Y-71849618D01*
X92937354Y-71854971D01*
X92981336Y-71878479D01*
X93019885Y-71910115D01*
X93051521Y-71948664D01*
X93075030Y-71992646D01*
X93089507Y-72040372D01*
X93095000Y-72096141D01*
X93095000Y-73723859D01*
X93089507Y-73779628D01*
X93075030Y-73827354D01*
X93051521Y-73871336D01*
X93019885Y-73909885D01*
X92981336Y-73941521D01*
X92937354Y-73965030D01*
X92889628Y-73979507D01*
X92833859Y-73985000D01*
X91706141Y-73985000D01*
X91650372Y-73979507D01*
X91602646Y-73965030D01*
X91558664Y-73941521D01*
X91520115Y-73909885D01*
X91488479Y-73871336D01*
X91464970Y-73827354D01*
X91450493Y-73779628D01*
X91445000Y-73723859D01*
X91445000Y-72096141D01*
X91450493Y-72040372D01*
X91464970Y-71992646D01*
X91488479Y-71948664D01*
X91520115Y-71910115D01*
X91558664Y-71878479D01*
X91602646Y-71854970D01*
X91650372Y-71840493D01*
X91706141Y-71835000D01*
X92024006Y-71835000D01*
X92048392Y-71832598D01*
X92071841Y-71825485D01*
X92093452Y-71813934D01*
X92112394Y-71798388D01*
X92127940Y-71779446D01*
X92139491Y-71757835D01*
X92146604Y-71734386D01*
X92149006Y-71710000D01*
X92146604Y-71685614D01*
X92139491Y-71662165D01*
X92127940Y-71640554D01*
X92112394Y-71621612D01*
X92093452Y-71606066D01*
X92071841Y-71594515D01*
X92060291Y-71590382D01*
X92042646Y-71585029D01*
X91998664Y-71561521D01*
X91960115Y-71529885D01*
X91928479Y-71491336D01*
X91904970Y-71447354D01*
X91890493Y-71399628D01*
X91885000Y-71343859D01*
X91885000Y-69716141D01*
X91890493Y-69660372D01*
X91904970Y-69612646D01*
X91928479Y-69568664D01*
X91960115Y-69530115D01*
X91998664Y-69498479D01*
X92042646Y-69474970D01*
X92090372Y-69460493D01*
X92146141Y-69455000D01*
X93273859Y-69455000D01*
X93329628Y-69460493D01*
X93377354Y-69474970D01*
X93421336Y-69498479D01*
X93459885Y-69530115D01*
X93491521Y-69568664D01*
X93515030Y-69612646D01*
X93529507Y-69660372D01*
X93535602Y-69722253D01*
X93540383Y-69746286D01*
X93549760Y-69768925D01*
X93563374Y-69789300D01*
X93580701Y-69806627D01*
X93601076Y-69820241D01*
X93623715Y-69829618D01*
X93647749Y-69834398D01*
X93672253Y-69834398D01*
X93696286Y-69829617D01*
X93718925Y-69820240D01*
X93739300Y-69806626D01*
X93756627Y-69789299D01*
X93770241Y-69768924D01*
X93779618Y-69746285D01*
X93785000Y-69710000D01*
X93785000Y-69696141D01*
X93790493Y-69640372D01*
X93804970Y-69592646D01*
X93828479Y-69548664D01*
X93860115Y-69510115D01*
X93898664Y-69478479D01*
X93942646Y-69454970D01*
X94001046Y-69437255D01*
X94023685Y-69427877D01*
X94044060Y-69414263D01*
X94061387Y-69396936D01*
X94075001Y-69376562D01*
X94084378Y-69353923D01*
X94089159Y-69329889D01*
X94089159Y-69305385D01*
X94084379Y-69281352D01*
X94075001Y-69258713D01*
X94061387Y-69238338D01*
X94044060Y-69221011D01*
X94023686Y-69207397D01*
X94001047Y-69198020D01*
X93977013Y-69193239D01*
X93938878Y-69189483D01*
X93890915Y-69174934D01*
X93846725Y-69151314D01*
X93807982Y-69119518D01*
X93776186Y-69080775D01*
X93752566Y-69036585D01*
X93738017Y-68988622D01*
X93732500Y-68932609D01*
X93732500Y-68107391D01*
X93738017Y-68051378D01*
X93752566Y-68003415D01*
X93776186Y-67959225D01*
X93807982Y-67920482D01*
X93846725Y-67888686D01*
X93890915Y-67865066D01*
X93938878Y-67850517D01*
X93994891Y-67845000D01*
X94745109Y-67845000D01*
X94801122Y-67850517D01*
X94801122Y-67850517D01*
G37*
G36*
X79101159Y-69738946D02*
X79186488Y-69755919D01*
X79364411Y-69829617D01*
X79427623Y-69855800D01*
X79644641Y-70000807D01*
X79829193Y-70185359D01*
X79829195Y-70185362D01*
X79974200Y-70402377D01*
X80069939Y-70633512D01*
X80074081Y-70643513D01*
X80125000Y-70899497D01*
X80125000Y-71160503D01*
X80103005Y-71271076D01*
X80074081Y-71416488D01*
X79995002Y-71607402D01*
X79974200Y-71657623D01*
X79829193Y-71874641D01*
X79644641Y-72059193D01*
X79644638Y-72059195D01*
X79427623Y-72204200D01*
X79186488Y-72304081D01*
X79101159Y-72321054D01*
X78930503Y-72355000D01*
X78669497Y-72355000D01*
X78498841Y-72321054D01*
X78413512Y-72304081D01*
X78172377Y-72204200D01*
X77955362Y-72059195D01*
X77955359Y-72059193D01*
X77770807Y-71874641D01*
X77625800Y-71657623D01*
X77604998Y-71607402D01*
X77525919Y-71416488D01*
X77496995Y-71271076D01*
X77475000Y-71160503D01*
X77475000Y-70899497D01*
X77525919Y-70643513D01*
X77530062Y-70633512D01*
X77625800Y-70402377D01*
X77770805Y-70185362D01*
X77770807Y-70185359D01*
X77955359Y-70000807D01*
X78172377Y-69855800D01*
X78235589Y-69829617D01*
X78413512Y-69755919D01*
X78498841Y-69738946D01*
X78669497Y-69705000D01*
X78930503Y-69705000D01*
X79101159Y-69738946D01*
X79101159Y-69738946D01*
G37*
G36*
X74021159Y-69738946D02*
X74106488Y-69755919D01*
X74284411Y-69829617D01*
X74347623Y-69855800D01*
X74564641Y-70000807D01*
X74749193Y-70185359D01*
X74749195Y-70185362D01*
X74894200Y-70402377D01*
X74989939Y-70633512D01*
X74994081Y-70643513D01*
X75045000Y-70899497D01*
X75045000Y-71160503D01*
X75023005Y-71271076D01*
X74994081Y-71416488D01*
X74915002Y-71607402D01*
X74894200Y-71657623D01*
X74749193Y-71874641D01*
X74564641Y-72059193D01*
X74564638Y-72059195D01*
X74347623Y-72204200D01*
X74106488Y-72304081D01*
X74021159Y-72321054D01*
X73850503Y-72355000D01*
X73589497Y-72355000D01*
X73418841Y-72321054D01*
X73333512Y-72304081D01*
X73092377Y-72204200D01*
X72875362Y-72059195D01*
X72875359Y-72059193D01*
X72690807Y-71874641D01*
X72545800Y-71657623D01*
X72524998Y-71607402D01*
X72445919Y-71416488D01*
X72416995Y-71271076D01*
X72395000Y-71160503D01*
X72395000Y-70899497D01*
X72445919Y-70643513D01*
X72450062Y-70633512D01*
X72545800Y-70402377D01*
X72690805Y-70185362D01*
X72690807Y-70185359D01*
X72875359Y-70000807D01*
X73092377Y-69855800D01*
X73155589Y-69829617D01*
X73333512Y-69755919D01*
X73418841Y-69738946D01*
X73589497Y-69705000D01*
X73850503Y-69705000D01*
X74021159Y-69738946D01*
X74021159Y-69738946D01*
G37*
G36*
X87477511Y-69722253D02*
X87596488Y-69745919D01*
X87798556Y-69829618D01*
X87837623Y-69845800D01*
X88054641Y-69990807D01*
X88239193Y-70175359D01*
X88384200Y-70392377D01*
X88484081Y-70633513D01*
X88535000Y-70889497D01*
X88535000Y-71150503D01*
X88524040Y-71205602D01*
X88484081Y-71406488D01*
X88414281Y-71575000D01*
X88384200Y-71647623D01*
X88239193Y-71864641D01*
X88054641Y-72049193D01*
X88039675Y-72059193D01*
X87837623Y-72194200D01*
X87596488Y-72294081D01*
X87511159Y-72311054D01*
X87340503Y-72345000D01*
X87079497Y-72345000D01*
X86908841Y-72311054D01*
X86823512Y-72294081D01*
X86582377Y-72194200D01*
X86380325Y-72059193D01*
X86365359Y-72049193D01*
X86180807Y-71864641D01*
X86035800Y-71647623D01*
X86005719Y-71575000D01*
X85935919Y-71406488D01*
X85895960Y-71205602D01*
X85885000Y-71150503D01*
X85885000Y-70889497D01*
X85935919Y-70633513D01*
X86035800Y-70392377D01*
X86180807Y-70175359D01*
X86365359Y-69990807D01*
X86582377Y-69845800D01*
X86621444Y-69829618D01*
X86823512Y-69745919D01*
X86942489Y-69722253D01*
X87079497Y-69695000D01*
X87340503Y-69695000D01*
X87477511Y-69722253D01*
X87477511Y-69722253D01*
G37*
G36*
X82397511Y-69722253D02*
X82516488Y-69745919D01*
X82718556Y-69829618D01*
X82757623Y-69845800D01*
X82974641Y-69990807D01*
X83159193Y-70175359D01*
X83304200Y-70392377D01*
X83404081Y-70633513D01*
X83455000Y-70889497D01*
X83455000Y-71150503D01*
X83444040Y-71205602D01*
X83404081Y-71406488D01*
X83334281Y-71575000D01*
X83304200Y-71647623D01*
X83159193Y-71864641D01*
X82974641Y-72049193D01*
X82959675Y-72059193D01*
X82757623Y-72194200D01*
X82516488Y-72294081D01*
X82431159Y-72311054D01*
X82260503Y-72345000D01*
X81999497Y-72345000D01*
X81828841Y-72311054D01*
X81743512Y-72294081D01*
X81502377Y-72194200D01*
X81300325Y-72059193D01*
X81285359Y-72049193D01*
X81100807Y-71864641D01*
X80955800Y-71647623D01*
X80925719Y-71575000D01*
X80855919Y-71406488D01*
X80815960Y-71205602D01*
X80805000Y-71150503D01*
X80805000Y-70889497D01*
X80855919Y-70633513D01*
X80955800Y-70392377D01*
X81100807Y-70175359D01*
X81285359Y-69990807D01*
X81502377Y-69845800D01*
X81541444Y-69829618D01*
X81743512Y-69745919D01*
X81862489Y-69722253D01*
X81999497Y-69695000D01*
X82260503Y-69695000D01*
X82397511Y-69722253D01*
X82397511Y-69722253D01*
G37*
G36*
X90529628Y-69460493D02*
X90577354Y-69474970D01*
X90621336Y-69498479D01*
X90659885Y-69530115D01*
X90691521Y-69568664D01*
X90715030Y-69612646D01*
X90729507Y-69660372D01*
X90735000Y-69716141D01*
X90735000Y-71343859D01*
X90729507Y-71399628D01*
X90715030Y-71447354D01*
X90691521Y-71491336D01*
X90659885Y-71529885D01*
X90621336Y-71561521D01*
X90577354Y-71585030D01*
X90529628Y-71599507D01*
X90473859Y-71605000D01*
X89346141Y-71605000D01*
X89290372Y-71599507D01*
X89242646Y-71585030D01*
X89198664Y-71561521D01*
X89160115Y-71529885D01*
X89128479Y-71491336D01*
X89104970Y-71447354D01*
X89090493Y-71399628D01*
X89085000Y-71343859D01*
X89085000Y-69716141D01*
X89090493Y-69660372D01*
X89104970Y-69612646D01*
X89128479Y-69568664D01*
X89160115Y-69530115D01*
X89198664Y-69498479D01*
X89242646Y-69474970D01*
X89290372Y-69460493D01*
X89346141Y-69455000D01*
X90473859Y-69455000D01*
X90529628Y-69460493D01*
X90529628Y-69460493D01*
G37*
G36*
X64139628Y-69440493D02*
X64187354Y-69454970D01*
X64231336Y-69478479D01*
X64269885Y-69510115D01*
X64301521Y-69548664D01*
X64325030Y-69592646D01*
X64339507Y-69640372D01*
X64345000Y-69696141D01*
X64345000Y-71323859D01*
X64339507Y-71379628D01*
X64325030Y-71427354D01*
X64301521Y-71471336D01*
X64269885Y-71509885D01*
X64231336Y-71541521D01*
X64187354Y-71565030D01*
X64139628Y-71579507D01*
X64083859Y-71585000D01*
X62956141Y-71585000D01*
X62900372Y-71579507D01*
X62852646Y-71565030D01*
X62808664Y-71541521D01*
X62770115Y-71509885D01*
X62738479Y-71471336D01*
X62714970Y-71427354D01*
X62700493Y-71379628D01*
X62695000Y-71323859D01*
X62695000Y-69696141D01*
X62700493Y-69640372D01*
X62714970Y-69592646D01*
X62738479Y-69548664D01*
X62770115Y-69510115D01*
X62808664Y-69478479D01*
X62852646Y-69454970D01*
X62900372Y-69440493D01*
X62956141Y-69435000D01*
X64083859Y-69435000D01*
X64139628Y-69440493D01*
X64139628Y-69440493D01*
G37*
G36*
X67056122Y-67860517D02*
X67104085Y-67875066D01*
X67148275Y-67898686D01*
X67187018Y-67930482D01*
X67218814Y-67969225D01*
X67242434Y-68013415D01*
X67256983Y-68061378D01*
X67262500Y-68117391D01*
X67262500Y-68942609D01*
X67256983Y-68998622D01*
X67242434Y-69046585D01*
X67218814Y-69090775D01*
X67187018Y-69129518D01*
X67148275Y-69161314D01*
X67104085Y-69184934D01*
X67056122Y-69199483D01*
X66993997Y-69205602D01*
X66994054Y-69206176D01*
X66981608Y-69207402D01*
X66958159Y-69214515D01*
X66936548Y-69226066D01*
X66917606Y-69241612D01*
X66902060Y-69260554D01*
X66890509Y-69282165D01*
X66883396Y-69305614D01*
X66880994Y-69330000D01*
X66883396Y-69354386D01*
X66890509Y-69377835D01*
X66902060Y-69399446D01*
X66917606Y-69418388D01*
X66936548Y-69433934D01*
X66958159Y-69445485D01*
X66969709Y-69449618D01*
X66987354Y-69454971D01*
X67031336Y-69478479D01*
X67069885Y-69510115D01*
X67101521Y-69548664D01*
X67125030Y-69592646D01*
X67139507Y-69640372D01*
X67145000Y-69696141D01*
X67145000Y-71323859D01*
X67139507Y-71379628D01*
X67125030Y-71427354D01*
X67101521Y-71471336D01*
X67069885Y-71509885D01*
X67031336Y-71541521D01*
X66987354Y-71565030D01*
X66939628Y-71579507D01*
X66883859Y-71585000D01*
X65756141Y-71585000D01*
X65700372Y-71579507D01*
X65652646Y-71565030D01*
X65608664Y-71541521D01*
X65570115Y-71509885D01*
X65538479Y-71471336D01*
X65514970Y-71427354D01*
X65500493Y-71379628D01*
X65495000Y-71323859D01*
X65495000Y-69696141D01*
X65500493Y-69640372D01*
X65514970Y-69592646D01*
X65538479Y-69548664D01*
X65570115Y-69510115D01*
X65608664Y-69478479D01*
X65652646Y-69454970D01*
X65700372Y-69440493D01*
X65756141Y-69435000D01*
X66127591Y-69435000D01*
X66151977Y-69432598D01*
X66175426Y-69425485D01*
X66197037Y-69413934D01*
X66215979Y-69398388D01*
X66231525Y-69379446D01*
X66243076Y-69357835D01*
X66250189Y-69334386D01*
X66252591Y-69310000D01*
X66250189Y-69285614D01*
X66243076Y-69262165D01*
X66231525Y-69240554D01*
X66215979Y-69221612D01*
X66197037Y-69206066D01*
X66175426Y-69194515D01*
X66163876Y-69190382D01*
X66145915Y-69184934D01*
X66101725Y-69161314D01*
X66062982Y-69129518D01*
X66031186Y-69090775D01*
X66007566Y-69046585D01*
X65993017Y-68998622D01*
X65987500Y-68942609D01*
X65987500Y-68117391D01*
X65993017Y-68061378D01*
X66007566Y-68013415D01*
X66031186Y-67969225D01*
X66062982Y-67930482D01*
X66101725Y-67898686D01*
X66145915Y-67875066D01*
X66193878Y-67860517D01*
X66249891Y-67855000D01*
X67000109Y-67855000D01*
X67056122Y-67860517D01*
X67056122Y-67860517D01*
G37*
G36*
X98029628Y-69440493D02*
X98077354Y-69454970D01*
X98121336Y-69478479D01*
X98159885Y-69510115D01*
X98191521Y-69548664D01*
X98215030Y-69592646D01*
X98229507Y-69640372D01*
X98235000Y-69696141D01*
X98235000Y-71323859D01*
X98229507Y-71379628D01*
X98215030Y-71427354D01*
X98191521Y-71471336D01*
X98159885Y-71509885D01*
X98121336Y-71541521D01*
X98077354Y-71565030D01*
X98029628Y-71579507D01*
X97973859Y-71585000D01*
X96846141Y-71585000D01*
X96790372Y-71579507D01*
X96742646Y-71565030D01*
X96698664Y-71541521D01*
X96660115Y-71509885D01*
X96628479Y-71471336D01*
X96604970Y-71427354D01*
X96590493Y-71379628D01*
X96585000Y-71323859D01*
X96585000Y-69696141D01*
X96590493Y-69640372D01*
X96604970Y-69592646D01*
X96628479Y-69548664D01*
X96660115Y-69510115D01*
X96698664Y-69478479D01*
X96742646Y-69454970D01*
X96790372Y-69440493D01*
X96846141Y-69435000D01*
X97973859Y-69435000D01*
X98029628Y-69440493D01*
X98029628Y-69440493D01*
G37*
G36*
X71641122Y-67860517D02*
X71689085Y-67875066D01*
X71733275Y-67898686D01*
X71772018Y-67930482D01*
X71803814Y-67969225D01*
X71827434Y-68013415D01*
X71841983Y-68061378D01*
X71847500Y-68117391D01*
X71847500Y-68942609D01*
X71841983Y-68998622D01*
X71827434Y-69046585D01*
X71803814Y-69090775D01*
X71772018Y-69129518D01*
X71733275Y-69161314D01*
X71689086Y-69184933D01*
X71658933Y-69194080D01*
X71636294Y-69203458D01*
X71615920Y-69217072D01*
X71598593Y-69234399D01*
X71584979Y-69254773D01*
X71575601Y-69277412D01*
X71570821Y-69301446D01*
X71570821Y-69325950D01*
X71575601Y-69349984D01*
X71584979Y-69372623D01*
X71598593Y-69392997D01*
X71615920Y-69410324D01*
X71636294Y-69423938D01*
X71658934Y-69433316D01*
X71697354Y-69444970D01*
X71741336Y-69468479D01*
X71779885Y-69500115D01*
X71811521Y-69538664D01*
X71835030Y-69582646D01*
X71849507Y-69630372D01*
X71855000Y-69686141D01*
X71855000Y-71313859D01*
X71849507Y-71369628D01*
X71835030Y-71417354D01*
X71811521Y-71461336D01*
X71779885Y-71499885D01*
X71741336Y-71531521D01*
X71697354Y-71555030D01*
X71649628Y-71569507D01*
X71593859Y-71575000D01*
X70466141Y-71575000D01*
X70410372Y-71569507D01*
X70362646Y-71555030D01*
X70318664Y-71531521D01*
X70280115Y-71499885D01*
X70248479Y-71461336D01*
X70224970Y-71417354D01*
X70210493Y-71369628D01*
X70205000Y-71313859D01*
X70205000Y-69686141D01*
X70210493Y-69630372D01*
X70224970Y-69582646D01*
X70248479Y-69538664D01*
X70280115Y-69500115D01*
X70318664Y-69468479D01*
X70362646Y-69444970D01*
X70410372Y-69430493D01*
X70466141Y-69425000D01*
X70681020Y-69425000D01*
X70705406Y-69422598D01*
X70728855Y-69415485D01*
X70750466Y-69403934D01*
X70769408Y-69388388D01*
X70784954Y-69369446D01*
X70796505Y-69347835D01*
X70803618Y-69324386D01*
X70806020Y-69300000D01*
X70803618Y-69275614D01*
X70796505Y-69252165D01*
X70784954Y-69230554D01*
X70769408Y-69211612D01*
X70750466Y-69196066D01*
X70739945Y-69189760D01*
X70686723Y-69161312D01*
X70647982Y-69129518D01*
X70616186Y-69090775D01*
X70592566Y-69046585D01*
X70578017Y-68998622D01*
X70572500Y-68942609D01*
X70572500Y-68117391D01*
X70578017Y-68061378D01*
X70592566Y-68013415D01*
X70616186Y-67969225D01*
X70647982Y-67930482D01*
X70686725Y-67898686D01*
X70730915Y-67875066D01*
X70778878Y-67860517D01*
X70834891Y-67855000D01*
X71585109Y-67855000D01*
X71641122Y-67860517D01*
X71641122Y-67860517D01*
G37*
G36*
X68631122Y-67860517D02*
X68679085Y-67875066D01*
X68723275Y-67898686D01*
X68762018Y-67930482D01*
X68793812Y-67969223D01*
X68807260Y-67994382D01*
X68820874Y-68014756D01*
X68838201Y-68032083D01*
X68858575Y-68045697D01*
X68881214Y-68055075D01*
X68905248Y-68059855D01*
X68929752Y-68059855D01*
X68953786Y-68055075D01*
X68976425Y-68045697D01*
X68996799Y-68032083D01*
X69014126Y-68014756D01*
X69027740Y-67994382D01*
X69041188Y-67969223D01*
X69072982Y-67930482D01*
X69111725Y-67898686D01*
X69155915Y-67875066D01*
X69203878Y-67860517D01*
X69259891Y-67855000D01*
X70010109Y-67855000D01*
X70066122Y-67860517D01*
X70114085Y-67875066D01*
X70158275Y-67898686D01*
X70197018Y-67930482D01*
X70228814Y-67969225D01*
X70252434Y-68013415D01*
X70266983Y-68061378D01*
X70272500Y-68117391D01*
X70272500Y-68942609D01*
X70266983Y-68998622D01*
X70252434Y-69046585D01*
X70228814Y-69090775D01*
X70197018Y-69129518D01*
X70158275Y-69161314D01*
X70114085Y-69184934D01*
X70066122Y-69199483D01*
X70010109Y-69205000D01*
X69259891Y-69205000D01*
X69203878Y-69199483D01*
X69155915Y-69184934D01*
X69111725Y-69161314D01*
X69072982Y-69129518D01*
X69041188Y-69090777D01*
X69027740Y-69065618D01*
X69014126Y-69045244D01*
X68996799Y-69027917D01*
X68976425Y-69014303D01*
X68953786Y-69004925D01*
X68929752Y-69000145D01*
X68905248Y-69000145D01*
X68881214Y-69004925D01*
X68858575Y-69014303D01*
X68838201Y-69027917D01*
X68820874Y-69045244D01*
X68807260Y-69065618D01*
X68793812Y-69090777D01*
X68762018Y-69129518D01*
X68723277Y-69161312D01*
X68670055Y-69189760D01*
X68649681Y-69203374D01*
X68632354Y-69220701D01*
X68618740Y-69241075D01*
X68609362Y-69263714D01*
X68604582Y-69287748D01*
X68604582Y-69312252D01*
X68609362Y-69336286D01*
X68618740Y-69358925D01*
X68632354Y-69379299D01*
X68649681Y-69396626D01*
X68670055Y-69410240D01*
X68692694Y-69419618D01*
X68716728Y-69424398D01*
X68728980Y-69425000D01*
X68793859Y-69425000D01*
X68849628Y-69430493D01*
X68897354Y-69444970D01*
X68941336Y-69468479D01*
X68979885Y-69500115D01*
X69011521Y-69538664D01*
X69035030Y-69582646D01*
X69049507Y-69630372D01*
X69055000Y-69686141D01*
X69055000Y-71313859D01*
X69049507Y-71369628D01*
X69035030Y-71417354D01*
X69011521Y-71461336D01*
X68979885Y-71499885D01*
X68941336Y-71531521D01*
X68897354Y-71555030D01*
X68849628Y-71569507D01*
X68793859Y-71575000D01*
X67666141Y-71575000D01*
X67610372Y-71569507D01*
X67562646Y-71555030D01*
X67518664Y-71531521D01*
X67480115Y-71499885D01*
X67448479Y-71461336D01*
X67424970Y-71417354D01*
X67410493Y-71369628D01*
X67405000Y-71313859D01*
X67405000Y-69686141D01*
X67410493Y-69630372D01*
X67424970Y-69582646D01*
X67448479Y-69538664D01*
X67480115Y-69500115D01*
X67518664Y-69468479D01*
X67562646Y-69444970D01*
X67610372Y-69430493D01*
X67666141Y-69425000D01*
X67671020Y-69425000D01*
X67695406Y-69422598D01*
X67718855Y-69415485D01*
X67740466Y-69403934D01*
X67759408Y-69388388D01*
X67774954Y-69369446D01*
X67786505Y-69347835D01*
X67793618Y-69324386D01*
X67796020Y-69300000D01*
X67793618Y-69275614D01*
X67786505Y-69252165D01*
X67774954Y-69230554D01*
X67759408Y-69211612D01*
X67740466Y-69196066D01*
X67729945Y-69189760D01*
X67676723Y-69161312D01*
X67637982Y-69129518D01*
X67606186Y-69090775D01*
X67582566Y-69046585D01*
X67568017Y-68998622D01*
X67562500Y-68942609D01*
X67562500Y-68117391D01*
X67568017Y-68061378D01*
X67582566Y-68013415D01*
X67606186Y-67969225D01*
X67637982Y-67930482D01*
X67676725Y-67898686D01*
X67720915Y-67875066D01*
X67768878Y-67860517D01*
X67824891Y-67855000D01*
X68575109Y-67855000D01*
X68631122Y-67860517D01*
X68631122Y-67860517D01*
G37*
G36*
X76617319Y-67312076D02*
X76840255Y-67404419D01*
X77025926Y-67528481D01*
X77040895Y-67538483D01*
X77211517Y-67709105D01*
X77211519Y-67709108D01*
X77345581Y-67909745D01*
X77437924Y-68132681D01*
X77485000Y-68369348D01*
X77485000Y-68610652D01*
X77437924Y-68847319D01*
X77345581Y-69070255D01*
X77235903Y-69234399D01*
X77211517Y-69270895D01*
X77040895Y-69441517D01*
X77040892Y-69441519D01*
X76840255Y-69575581D01*
X76617319Y-69667924D01*
X76498985Y-69691462D01*
X76380653Y-69715000D01*
X76139347Y-69715000D01*
X76021015Y-69691462D01*
X75902681Y-69667924D01*
X75679745Y-69575581D01*
X75479108Y-69441519D01*
X75479105Y-69441517D01*
X75308483Y-69270895D01*
X75284097Y-69234399D01*
X75174419Y-69070255D01*
X75082076Y-68847319D01*
X75035000Y-68610652D01*
X75035000Y-68369348D01*
X75082076Y-68132681D01*
X75174419Y-67909745D01*
X75308481Y-67709108D01*
X75308483Y-67709105D01*
X75479105Y-67538483D01*
X75494074Y-67528481D01*
X75679745Y-67404419D01*
X75902681Y-67312076D01*
X76139347Y-67265000D01*
X76380653Y-67265000D01*
X76617319Y-67312076D01*
X76617319Y-67312076D01*
G37*
G36*
X84891199Y-67275000D02*
X85027319Y-67302076D01*
X85250255Y-67394419D01*
X85449539Y-67527577D01*
X85450895Y-67528483D01*
X85621517Y-67699105D01*
X85621519Y-67699108D01*
X85755581Y-67899745D01*
X85847924Y-68122681D01*
X85895000Y-68359348D01*
X85895000Y-68600652D01*
X85847924Y-68837319D01*
X85755581Y-69060255D01*
X85628079Y-69251075D01*
X85621517Y-69260895D01*
X85450895Y-69431517D01*
X85450892Y-69431519D01*
X85250255Y-69565581D01*
X85027319Y-69657924D01*
X84908985Y-69681462D01*
X84790653Y-69705000D01*
X84549347Y-69705000D01*
X84431015Y-69681462D01*
X84312681Y-69657924D01*
X84089745Y-69565581D01*
X83889108Y-69431519D01*
X83889105Y-69431517D01*
X83718483Y-69260895D01*
X83711921Y-69251075D01*
X83584419Y-69060255D01*
X83492076Y-68837319D01*
X83445000Y-68600652D01*
X83445000Y-68359348D01*
X83492076Y-68122681D01*
X83584419Y-67899745D01*
X83718481Y-67699108D01*
X83718483Y-67699105D01*
X83889105Y-67528483D01*
X83890461Y-67527577D01*
X84089745Y-67394419D01*
X84312681Y-67302076D01*
X84448801Y-67275000D01*
X84549347Y-67255000D01*
X84790653Y-67255000D01*
X84891199Y-67275000D01*
X84891199Y-67275000D01*
G37*
G36*
X90166122Y-67850517D02*
X90214085Y-67865066D01*
X90258275Y-67888686D01*
X90297018Y-67920482D01*
X90328814Y-67959225D01*
X90352434Y-68003415D01*
X90366983Y-68051378D01*
X90372500Y-68107391D01*
X90372500Y-68932609D01*
X90366983Y-68988622D01*
X90352434Y-69036585D01*
X90328814Y-69080775D01*
X90297018Y-69119518D01*
X90258275Y-69151314D01*
X90214085Y-69174934D01*
X90166122Y-69189483D01*
X90110109Y-69195000D01*
X89359891Y-69195000D01*
X89303878Y-69189483D01*
X89255915Y-69174934D01*
X89211725Y-69151314D01*
X89172982Y-69119518D01*
X89141186Y-69080775D01*
X89117566Y-69036585D01*
X89103017Y-68988622D01*
X89097500Y-68932609D01*
X89097500Y-68107391D01*
X89103017Y-68051378D01*
X89117566Y-68003415D01*
X89141186Y-67959225D01*
X89172982Y-67920482D01*
X89211725Y-67888686D01*
X89255915Y-67865066D01*
X89303878Y-67850517D01*
X89359891Y-67845000D01*
X90110109Y-67845000D01*
X90166122Y-67850517D01*
X90166122Y-67850517D01*
G37*
G36*
X91741122Y-67850517D02*
X91789085Y-67865066D01*
X91833275Y-67888686D01*
X91872018Y-67920482D01*
X91903814Y-67959225D01*
X91927434Y-68003415D01*
X91932882Y-68021376D01*
X91942259Y-68044015D01*
X91955873Y-68064389D01*
X91973200Y-68081717D01*
X91993575Y-68095331D01*
X92016214Y-68104708D01*
X92040247Y-68109489D01*
X92064751Y-68109489D01*
X92088785Y-68104709D01*
X92111424Y-68095332D01*
X92131798Y-68081718D01*
X92149126Y-68064391D01*
X92162740Y-68044016D01*
X92172118Y-68021376D01*
X92177566Y-68003415D01*
X92201186Y-67959225D01*
X92232982Y-67920482D01*
X92271725Y-67888686D01*
X92315915Y-67865066D01*
X92363878Y-67850517D01*
X92419891Y-67845000D01*
X93170109Y-67845000D01*
X93226122Y-67850517D01*
X93274085Y-67865066D01*
X93318275Y-67888686D01*
X93357018Y-67920482D01*
X93388814Y-67959225D01*
X93412434Y-68003415D01*
X93426983Y-68051378D01*
X93432500Y-68107391D01*
X93432500Y-68932609D01*
X93426983Y-68988622D01*
X93412434Y-69036585D01*
X93388814Y-69080775D01*
X93357018Y-69119518D01*
X93318275Y-69151314D01*
X93274085Y-69174934D01*
X93226122Y-69189483D01*
X93170109Y-69195000D01*
X92419891Y-69195000D01*
X92363878Y-69189483D01*
X92315915Y-69174934D01*
X92271725Y-69151314D01*
X92232982Y-69119518D01*
X92201186Y-69080775D01*
X92177566Y-69036585D01*
X92172118Y-69018624D01*
X92162741Y-68995985D01*
X92149127Y-68975611D01*
X92131800Y-68958283D01*
X92111425Y-68944669D01*
X92088786Y-68935292D01*
X92064753Y-68930511D01*
X92040249Y-68930511D01*
X92016215Y-68935291D01*
X91993576Y-68944668D01*
X91973202Y-68958282D01*
X91955874Y-68975609D01*
X91942260Y-68995984D01*
X91932882Y-69018624D01*
X91927434Y-69036585D01*
X91903814Y-69080775D01*
X91872018Y-69119518D01*
X91833275Y-69151314D01*
X91789085Y-69174934D01*
X91741122Y-69189483D01*
X91685109Y-69195000D01*
X90934891Y-69195000D01*
X90878878Y-69189483D01*
X90830915Y-69174934D01*
X90786725Y-69151314D01*
X90747982Y-69119518D01*
X90716186Y-69080775D01*
X90692566Y-69036585D01*
X90678017Y-68988622D01*
X90672500Y-68932609D01*
X90672500Y-68107391D01*
X90678017Y-68051378D01*
X90692566Y-68003415D01*
X90716186Y-67959225D01*
X90747982Y-67920482D01*
X90786725Y-67888686D01*
X90830915Y-67865066D01*
X90878878Y-67850517D01*
X90934891Y-67845000D01*
X91685109Y-67845000D01*
X91741122Y-67850517D01*
X91741122Y-67850517D01*
G37*
G36*
X79101159Y-64658946D02*
X79186488Y-64675919D01*
X79403481Y-64765800D01*
X79427623Y-64775800D01*
X79644641Y-64920807D01*
X79829193Y-65105359D01*
X79829195Y-65105362D01*
X79974200Y-65322377D01*
X80069939Y-65553512D01*
X80074081Y-65563513D01*
X80125000Y-65819497D01*
X80125000Y-66080503D01*
X80074081Y-66336487D01*
X79974200Y-66577623D01*
X79829193Y-66794641D01*
X79644641Y-66979193D01*
X79644638Y-66979195D01*
X79427623Y-67124200D01*
X79186488Y-67224081D01*
X79101159Y-67241054D01*
X78930503Y-67275000D01*
X78669497Y-67275000D01*
X78498841Y-67241054D01*
X78413512Y-67224081D01*
X78172377Y-67124200D01*
X77955362Y-66979195D01*
X77955359Y-66979193D01*
X77770807Y-66794641D01*
X77625800Y-66577623D01*
X77525919Y-66336487D01*
X77475000Y-66080503D01*
X77475000Y-65819497D01*
X77525919Y-65563513D01*
X77530062Y-65553512D01*
X77625800Y-65322377D01*
X77770805Y-65105362D01*
X77770807Y-65105359D01*
X77955359Y-64920807D01*
X78172377Y-64775800D01*
X78196519Y-64765800D01*
X78413512Y-64675919D01*
X78498841Y-64658946D01*
X78669497Y-64625000D01*
X78930503Y-64625000D01*
X79101159Y-64658946D01*
X79101159Y-64658946D01*
G37*
G36*
X74021159Y-64658946D02*
X74106488Y-64675919D01*
X74323481Y-64765800D01*
X74347623Y-64775800D01*
X74564641Y-64920807D01*
X74749193Y-65105359D01*
X74749195Y-65105362D01*
X74894200Y-65322377D01*
X74989939Y-65553512D01*
X74994081Y-65563513D01*
X75045000Y-65819497D01*
X75045000Y-66080503D01*
X74994081Y-66336487D01*
X74894200Y-66577623D01*
X74749193Y-66794641D01*
X74564641Y-66979193D01*
X74564638Y-66979195D01*
X74347623Y-67124200D01*
X74106488Y-67224081D01*
X74021159Y-67241054D01*
X73850503Y-67275000D01*
X73589497Y-67275000D01*
X73418841Y-67241054D01*
X73333512Y-67224081D01*
X73092377Y-67124200D01*
X72875362Y-66979195D01*
X72875359Y-66979193D01*
X72690807Y-66794641D01*
X72545800Y-66577623D01*
X72445919Y-66336487D01*
X72395000Y-66080503D01*
X72395000Y-65819497D01*
X72445919Y-65563513D01*
X72450062Y-65553512D01*
X72545800Y-65322377D01*
X72690805Y-65105362D01*
X72690807Y-65105359D01*
X72875359Y-64920807D01*
X73092377Y-64775800D01*
X73116519Y-64765800D01*
X73333512Y-64675919D01*
X73418841Y-64658946D01*
X73589497Y-64625000D01*
X73850503Y-64625000D01*
X74021159Y-64658946D01*
X74021159Y-64658946D01*
G37*
G36*
X82431159Y-64648946D02*
X82516488Y-64665919D01*
X82757623Y-64765800D01*
X82974641Y-64910807D01*
X83159193Y-65095359D01*
X83304200Y-65312377D01*
X83404081Y-65553513D01*
X83455000Y-65809497D01*
X83455000Y-66070503D01*
X83421054Y-66241159D01*
X83404081Y-66326488D01*
X83304200Y-66567623D01*
X83159193Y-66784641D01*
X82974641Y-66969193D01*
X82974638Y-66969195D01*
X82757623Y-67114200D01*
X82516488Y-67214081D01*
X82431159Y-67231054D01*
X82260503Y-67265000D01*
X81999497Y-67265000D01*
X81828841Y-67231054D01*
X81743512Y-67214081D01*
X81502377Y-67114200D01*
X81285362Y-66969195D01*
X81285359Y-66969193D01*
X81100807Y-66784641D01*
X80955800Y-66567623D01*
X80855919Y-66326488D01*
X80838946Y-66241159D01*
X80805000Y-66070503D01*
X80805000Y-65809497D01*
X80855919Y-65553513D01*
X80955800Y-65312377D01*
X81100807Y-65095359D01*
X81285359Y-64910807D01*
X81502377Y-64765800D01*
X81743512Y-64665919D01*
X81828841Y-64648946D01*
X81999497Y-64615000D01*
X82260503Y-64615000D01*
X82431159Y-64648946D01*
X82431159Y-64648946D01*
G37*
G36*
X87511159Y-64648946D02*
X87596488Y-64665919D01*
X87837623Y-64765800D01*
X88054641Y-64910807D01*
X88239193Y-65095359D01*
X88384200Y-65312377D01*
X88484081Y-65553513D01*
X88535000Y-65809497D01*
X88535000Y-66070503D01*
X88501054Y-66241159D01*
X88484081Y-66326488D01*
X88384200Y-66567623D01*
X88239193Y-66784641D01*
X88054641Y-66969193D01*
X88054638Y-66969195D01*
X87837623Y-67114200D01*
X87596488Y-67214081D01*
X87511159Y-67231054D01*
X87340503Y-67265000D01*
X87079497Y-67265000D01*
X86908841Y-67231054D01*
X86823512Y-67214081D01*
X86582377Y-67114200D01*
X86365362Y-66969195D01*
X86365359Y-66969193D01*
X86180807Y-66784641D01*
X86035800Y-66567623D01*
X85935919Y-66326488D01*
X85918946Y-66241159D01*
X85885000Y-66070503D01*
X85885000Y-65809497D01*
X85935919Y-65553513D01*
X86035800Y-65312377D01*
X86180807Y-65095359D01*
X86365359Y-64910807D01*
X86582377Y-64765800D01*
X86823512Y-64665919D01*
X86908841Y-64648946D01*
X87079497Y-64615000D01*
X87340503Y-64615000D01*
X87511159Y-64648946D01*
X87511159Y-64648946D01*
G37*
G36*
X88916122Y-61260517D02*
X88964085Y-61275066D01*
X89008275Y-61298686D01*
X89047018Y-61330482D01*
X89078814Y-61369225D01*
X89102434Y-61413415D01*
X89116983Y-61461378D01*
X89122500Y-61517391D01*
X89122500Y-62342609D01*
X89116983Y-62398622D01*
X89102434Y-62446585D01*
X89078814Y-62490775D01*
X89047018Y-62529518D01*
X89008275Y-62561314D01*
X88964085Y-62584934D01*
X88916122Y-62599483D01*
X88860109Y-62605000D01*
X88109891Y-62605000D01*
X88053878Y-62599483D01*
X88005915Y-62584934D01*
X87961725Y-62561314D01*
X87922982Y-62529518D01*
X87891186Y-62490775D01*
X87867566Y-62446585D01*
X87853017Y-62398622D01*
X87847500Y-62342609D01*
X87847500Y-61517391D01*
X87853017Y-61461378D01*
X87867566Y-61413415D01*
X87891186Y-61369225D01*
X87922982Y-61330482D01*
X87961725Y-61298686D01*
X88005915Y-61275066D01*
X88053878Y-61260517D01*
X88109891Y-61255000D01*
X88860109Y-61255000D01*
X88916122Y-61260517D01*
X88916122Y-61260517D01*
G37*
G36*
X90491122Y-61260517D02*
X90539085Y-61275066D01*
X90583275Y-61298686D01*
X90622018Y-61330482D01*
X90653814Y-61369225D01*
X90677434Y-61413415D01*
X90691983Y-61461378D01*
X90697500Y-61517391D01*
X90697500Y-62342609D01*
X90691983Y-62398622D01*
X90677434Y-62446585D01*
X90653814Y-62490775D01*
X90622018Y-62529518D01*
X90583275Y-62561314D01*
X90539085Y-62584934D01*
X90491122Y-62599483D01*
X90435109Y-62605000D01*
X89684891Y-62605000D01*
X89628878Y-62599483D01*
X89580915Y-62584934D01*
X89536725Y-62561314D01*
X89497982Y-62529518D01*
X89466186Y-62490775D01*
X89442566Y-62446585D01*
X89428017Y-62398622D01*
X89422500Y-62342609D01*
X89422500Y-61517391D01*
X89428017Y-61461378D01*
X89442566Y-61413415D01*
X89466186Y-61369225D01*
X89497982Y-61330482D01*
X89536725Y-61298686D01*
X89580915Y-61275066D01*
X89628878Y-61260517D01*
X89684891Y-61255000D01*
X90435109Y-61255000D01*
X90491122Y-61260517D01*
X90491122Y-61260517D01*
G37*
G36*
X92748707Y-59997596D02*
X92825836Y-60005193D01*
X92924456Y-60035109D01*
X93023763Y-60065233D01*
X93206172Y-60162733D01*
X93366054Y-60293946D01*
X93497267Y-60453828D01*
X93594767Y-60636237D01*
X93594767Y-60636238D01*
X93654807Y-60834164D01*
X93675080Y-61040000D01*
X93654807Y-61245836D01*
X93629130Y-61330482D01*
X93594767Y-61443763D01*
X93497267Y-61626172D01*
X93366054Y-61786054D01*
X93206172Y-61917267D01*
X93023763Y-62014767D01*
X92957787Y-62034780D01*
X92825836Y-62074807D01*
X92748707Y-62082403D01*
X92671580Y-62090000D01*
X92568420Y-62090000D01*
X92491293Y-62082403D01*
X92414164Y-62074807D01*
X92282213Y-62034780D01*
X92216237Y-62014767D01*
X92033828Y-61917267D01*
X91873946Y-61786054D01*
X91742733Y-61626172D01*
X91645233Y-61443763D01*
X91610870Y-61330482D01*
X91585193Y-61245836D01*
X91564920Y-61040000D01*
X91585193Y-60834164D01*
X91645233Y-60636238D01*
X91645233Y-60636237D01*
X91742733Y-60453828D01*
X91873946Y-60293946D01*
X92033828Y-60162733D01*
X92216237Y-60065233D01*
X92315544Y-60035109D01*
X92414164Y-60005193D01*
X92491293Y-59997596D01*
X92568420Y-59990000D01*
X92671580Y-59990000D01*
X92748707Y-59997596D01*
X92748707Y-59997596D01*
G37*
G36*
X76720000Y-61080000D02*
X74620000Y-61080000D01*
X74620000Y-59780000D01*
X76720000Y-59780000D01*
X76720000Y-61080000D01*
X76720000Y-61080000D01*
G37*
G36*
X73658622Y-59028017D02*
X73706585Y-59042566D01*
X73750775Y-59066186D01*
X73789518Y-59097982D01*
X73821314Y-59136725D01*
X73844934Y-59180915D01*
X73859483Y-59228878D01*
X73865000Y-59284891D01*
X73865000Y-60035109D01*
X73859483Y-60091122D01*
X73844934Y-60139085D01*
X73821314Y-60183275D01*
X73789518Y-60222018D01*
X73750775Y-60253814D01*
X73706585Y-60277434D01*
X73658622Y-60291983D01*
X73602609Y-60297500D01*
X72777391Y-60297500D01*
X72721378Y-60291983D01*
X72673415Y-60277434D01*
X72629225Y-60253814D01*
X72590482Y-60222018D01*
X72558686Y-60183275D01*
X72535066Y-60139085D01*
X72520517Y-60091122D01*
X72515000Y-60035109D01*
X72515000Y-59284891D01*
X72520517Y-59228878D01*
X72535066Y-59180915D01*
X72558686Y-59136725D01*
X72590482Y-59097982D01*
X72629225Y-59066186D01*
X72673415Y-59042566D01*
X72721378Y-59028017D01*
X72777391Y-59022500D01*
X73602609Y-59022500D01*
X73658622Y-59028017D01*
X73658622Y-59028017D01*
G37*
G36*
X78220974Y-57689148D02*
X78255568Y-57699642D01*
X78287441Y-57716678D01*
X78315387Y-57739613D01*
X78338322Y-57767559D01*
X78355358Y-57799432D01*
X78365852Y-57834026D01*
X78370000Y-57876141D01*
X78370000Y-58483859D01*
X78365852Y-58525974D01*
X78355358Y-58560568D01*
X78334213Y-58600128D01*
X78330243Y-58606069D01*
X78320864Y-58628708D01*
X78316083Y-58652741D01*
X78316081Y-58677245D01*
X78320860Y-58701279D01*
X78330237Y-58723918D01*
X78334205Y-58729858D01*
X78355358Y-58769432D01*
X78365852Y-58804026D01*
X78370000Y-58846141D01*
X78370000Y-59453859D01*
X78365852Y-59495974D01*
X78355358Y-59530568D01*
X78338322Y-59562441D01*
X78315387Y-59590387D01*
X78287441Y-59613322D01*
X78255568Y-59630358D01*
X78220974Y-59640852D01*
X78178859Y-59645000D01*
X77521141Y-59645000D01*
X77479026Y-59640852D01*
X77444432Y-59630358D01*
X77412559Y-59613322D01*
X77384613Y-59590387D01*
X77361678Y-59562441D01*
X77344642Y-59530568D01*
X77334148Y-59495974D01*
X77330000Y-59453859D01*
X77330000Y-58846141D01*
X77334148Y-58804026D01*
X77344642Y-58769432D01*
X77365787Y-58729872D01*
X77369757Y-58723931D01*
X77379136Y-58701292D01*
X77383917Y-58677259D01*
X77383919Y-58652755D01*
X77379140Y-58628721D01*
X77369763Y-58606082D01*
X77365795Y-58600142D01*
X77344642Y-58560568D01*
X77334148Y-58525974D01*
X77330000Y-58483859D01*
X77330000Y-57876141D01*
X77334148Y-57834026D01*
X77344642Y-57799432D01*
X77361678Y-57767559D01*
X77384613Y-57739613D01*
X77412559Y-57716678D01*
X77444432Y-57699642D01*
X77479026Y-57689148D01*
X77521141Y-57685000D01*
X78178859Y-57685000D01*
X78220974Y-57689148D01*
X78220974Y-57689148D01*
G37*
G36*
X92748707Y-57457597D02*
X92825836Y-57465193D01*
X92944598Y-57501219D01*
X93023763Y-57525233D01*
X93206172Y-57622733D01*
X93366054Y-57753946D01*
X93497267Y-57913828D01*
X93594767Y-58096237D01*
X93594767Y-58096238D01*
X93654807Y-58294164D01*
X93675080Y-58500000D01*
X93654807Y-58705836D01*
X93636861Y-58764996D01*
X93594767Y-58903763D01*
X93497267Y-59086172D01*
X93366054Y-59246054D01*
X93206172Y-59377267D01*
X93023763Y-59474767D01*
X92966247Y-59492214D01*
X92825836Y-59534807D01*
X92748707Y-59542404D01*
X92671580Y-59550000D01*
X92568420Y-59550000D01*
X92491293Y-59542404D01*
X92414164Y-59534807D01*
X92273753Y-59492214D01*
X92216237Y-59474767D01*
X92033828Y-59377267D01*
X91873946Y-59246054D01*
X91742733Y-59086172D01*
X91645233Y-58903763D01*
X91603139Y-58764996D01*
X91585193Y-58705836D01*
X91564920Y-58500000D01*
X91585193Y-58294164D01*
X91645233Y-58096238D01*
X91645233Y-58096237D01*
X91742733Y-57913828D01*
X91873946Y-57753946D01*
X92033828Y-57622733D01*
X92216237Y-57525233D01*
X92295402Y-57501219D01*
X92414164Y-57465193D01*
X92491293Y-57457597D01*
X92568420Y-57450000D01*
X92671580Y-57450000D01*
X92748707Y-57457597D01*
X92748707Y-57457597D01*
G37*
G36*
X90538622Y-57920517D02*
X90586585Y-57935066D01*
X90630775Y-57958686D01*
X90669518Y-57990482D01*
X90701314Y-58029225D01*
X90724934Y-58073415D01*
X90739483Y-58121378D01*
X90745000Y-58177391D01*
X90745000Y-59002609D01*
X90739483Y-59058622D01*
X90724934Y-59106585D01*
X90701314Y-59150775D01*
X90669518Y-59189518D01*
X90630775Y-59221314D01*
X90586585Y-59244934D01*
X90538622Y-59259483D01*
X90482609Y-59265000D01*
X89732391Y-59265000D01*
X89676378Y-59259483D01*
X89628415Y-59244934D01*
X89584225Y-59221314D01*
X89545482Y-59189518D01*
X89513686Y-59150775D01*
X89490066Y-59106585D01*
X89475517Y-59058622D01*
X89470000Y-59002609D01*
X89470000Y-58177391D01*
X89475517Y-58121378D01*
X89490066Y-58073415D01*
X89513686Y-58029225D01*
X89545482Y-57990482D01*
X89584225Y-57958686D01*
X89628415Y-57935066D01*
X89676378Y-57920517D01*
X89732391Y-57915000D01*
X90482609Y-57915000D01*
X90538622Y-57920517D01*
X90538622Y-57920517D01*
G37*
G36*
X88963622Y-57920517D02*
X89011585Y-57935066D01*
X89055775Y-57958686D01*
X89094518Y-57990482D01*
X89126314Y-58029225D01*
X89149934Y-58073415D01*
X89164483Y-58121378D01*
X89170000Y-58177391D01*
X89170000Y-59002609D01*
X89164483Y-59058622D01*
X89149934Y-59106585D01*
X89126314Y-59150775D01*
X89094518Y-59189518D01*
X89055775Y-59221314D01*
X89011585Y-59244934D01*
X88963622Y-59259483D01*
X88907609Y-59265000D01*
X88157391Y-59265000D01*
X88101378Y-59259483D01*
X88053415Y-59244934D01*
X88009225Y-59221314D01*
X87970482Y-59189518D01*
X87938686Y-59150775D01*
X87915066Y-59106585D01*
X87900517Y-59058622D01*
X87895000Y-59002609D01*
X87895000Y-58177391D01*
X87900517Y-58121378D01*
X87915066Y-58073415D01*
X87938686Y-58029225D01*
X87970482Y-57990482D01*
X88009225Y-57958686D01*
X88053415Y-57935066D01*
X88101378Y-57920517D01*
X88157391Y-57915000D01*
X88907609Y-57915000D01*
X88963622Y-57920517D01*
X88963622Y-57920517D01*
G37*
G36*
X73658622Y-57453017D02*
X73706585Y-57467566D01*
X73750775Y-57491186D01*
X73789518Y-57522982D01*
X73821314Y-57561725D01*
X73844934Y-57605915D01*
X73859483Y-57653878D01*
X73865000Y-57709891D01*
X73865000Y-58460109D01*
X73859483Y-58516122D01*
X73844934Y-58564085D01*
X73821314Y-58608275D01*
X73789518Y-58647018D01*
X73750775Y-58678814D01*
X73706585Y-58702434D01*
X73658622Y-58716983D01*
X73602609Y-58722500D01*
X72777391Y-58722500D01*
X72721378Y-58716983D01*
X72673415Y-58702434D01*
X72629225Y-58678814D01*
X72590482Y-58647018D01*
X72558686Y-58608275D01*
X72535066Y-58564085D01*
X72520517Y-58516122D01*
X72515000Y-58460109D01*
X72515000Y-57709891D01*
X72520517Y-57653878D01*
X72535066Y-57605915D01*
X72558686Y-57561725D01*
X72590482Y-57522982D01*
X72629225Y-57491186D01*
X72673415Y-57467566D01*
X72721378Y-57453017D01*
X72777391Y-57447500D01*
X73602609Y-57447500D01*
X73658622Y-57453017D01*
X73658622Y-57453017D01*
G37*
G36*
X76720000Y-57680000D02*
X74620000Y-57680000D01*
X74620000Y-56380000D01*
X76720000Y-56380000D01*
X76720000Y-57680000D01*
X76720000Y-57680000D01*
G37*
G36*
X92748707Y-54917597D02*
X92825836Y-54925193D01*
X92957787Y-54965220D01*
X93023763Y-54985233D01*
X93206172Y-55082733D01*
X93366054Y-55213946D01*
X93497267Y-55373828D01*
X93594767Y-55556237D01*
X93594767Y-55556238D01*
X93654807Y-55754164D01*
X93675080Y-55960000D01*
X93654807Y-56165836D01*
X93615517Y-56295358D01*
X93594767Y-56363763D01*
X93497267Y-56546172D01*
X93366054Y-56706054D01*
X93206172Y-56837267D01*
X93023763Y-56934767D01*
X92957787Y-56954780D01*
X92825836Y-56994807D01*
X92748707Y-57002404D01*
X92671580Y-57010000D01*
X92568420Y-57010000D01*
X92491293Y-57002404D01*
X92414164Y-56994807D01*
X92282213Y-56954780D01*
X92216237Y-56934767D01*
X92033828Y-56837267D01*
X91873946Y-56706054D01*
X91742733Y-56546172D01*
X91645233Y-56363763D01*
X91624483Y-56295358D01*
X91585193Y-56165836D01*
X91564920Y-55960000D01*
X91585193Y-55754164D01*
X91645233Y-55556238D01*
X91645233Y-55556237D01*
X91742733Y-55373828D01*
X91873946Y-55213946D01*
X92033828Y-55082733D01*
X92216237Y-54985233D01*
X92282213Y-54965220D01*
X92414164Y-54925193D01*
X92491293Y-54917597D01*
X92568420Y-54910000D01*
X92671580Y-54910000D01*
X92748707Y-54917597D01*
X92748707Y-54917597D01*
G37*
G36*
X88971122Y-55300517D02*
X89019085Y-55315066D01*
X89063275Y-55338686D01*
X89102018Y-55370482D01*
X89133814Y-55409225D01*
X89157434Y-55453415D01*
X89171983Y-55501378D01*
X89177500Y-55557391D01*
X89177500Y-56382609D01*
X89171983Y-56438622D01*
X89157434Y-56486585D01*
X89133814Y-56530775D01*
X89102018Y-56569518D01*
X89063275Y-56601314D01*
X89019085Y-56624934D01*
X88971122Y-56639483D01*
X88915109Y-56645000D01*
X88164891Y-56645000D01*
X88108878Y-56639483D01*
X88060915Y-56624934D01*
X88016725Y-56601314D01*
X87977982Y-56569518D01*
X87946186Y-56530775D01*
X87922566Y-56486585D01*
X87908017Y-56438622D01*
X87902500Y-56382609D01*
X87902500Y-55557391D01*
X87908017Y-55501378D01*
X87922566Y-55453415D01*
X87946186Y-55409225D01*
X87977982Y-55370482D01*
X88016725Y-55338686D01*
X88060915Y-55315066D01*
X88108878Y-55300517D01*
X88164891Y-55295000D01*
X88915109Y-55295000D01*
X88971122Y-55300517D01*
X88971122Y-55300517D01*
G37*
G36*
X90546122Y-55300517D02*
X90594085Y-55315066D01*
X90638275Y-55338686D01*
X90677018Y-55370482D01*
X90708814Y-55409225D01*
X90732434Y-55453415D01*
X90746983Y-55501378D01*
X90752500Y-55557391D01*
X90752500Y-56382609D01*
X90746983Y-56438622D01*
X90732434Y-56486585D01*
X90708814Y-56530775D01*
X90677018Y-56569518D01*
X90638275Y-56601314D01*
X90594085Y-56624934D01*
X90546122Y-56639483D01*
X90490109Y-56645000D01*
X89739891Y-56645000D01*
X89683878Y-56639483D01*
X89635915Y-56624934D01*
X89591725Y-56601314D01*
X89552982Y-56569518D01*
X89521186Y-56530775D01*
X89497566Y-56486585D01*
X89483017Y-56438622D01*
X89477500Y-56382609D01*
X89477500Y-55557391D01*
X89483017Y-55501378D01*
X89497566Y-55453415D01*
X89521186Y-55409225D01*
X89552982Y-55370482D01*
X89591725Y-55338686D01*
X89635915Y-55315066D01*
X89683878Y-55300517D01*
X89739891Y-55295000D01*
X90490109Y-55295000D01*
X90546122Y-55300517D01*
X90546122Y-55300517D01*
G37*
G36*
X70315974Y-55254148D02*
X70350568Y-55264642D01*
X70390128Y-55285787D01*
X70396069Y-55289757D01*
X70418708Y-55299136D01*
X70442741Y-55303917D01*
X70467245Y-55303919D01*
X70491279Y-55299140D01*
X70513918Y-55289763D01*
X70519858Y-55285795D01*
X70559432Y-55264642D01*
X70594026Y-55254148D01*
X70636141Y-55250000D01*
X71243859Y-55250000D01*
X71285974Y-55254148D01*
X71320568Y-55264642D01*
X71352441Y-55281678D01*
X71380387Y-55304613D01*
X71403322Y-55332559D01*
X71420358Y-55364432D01*
X71430852Y-55399026D01*
X71435000Y-55441141D01*
X71435000Y-56098859D01*
X71430852Y-56140974D01*
X71420358Y-56175568D01*
X71403322Y-56207441D01*
X71380387Y-56235387D01*
X71352441Y-56258322D01*
X71320568Y-56275358D01*
X71285974Y-56285852D01*
X71243859Y-56290000D01*
X70636141Y-56290000D01*
X70594026Y-56285852D01*
X70559432Y-56275358D01*
X70519872Y-56254213D01*
X70513931Y-56250243D01*
X70491292Y-56240864D01*
X70467259Y-56236083D01*
X70442755Y-56236081D01*
X70418721Y-56240860D01*
X70396082Y-56250237D01*
X70390142Y-56254205D01*
X70350568Y-56275358D01*
X70315974Y-56285852D01*
X70273859Y-56290000D01*
X69666141Y-56290000D01*
X69624026Y-56285852D01*
X69589432Y-56275358D01*
X69557559Y-56258322D01*
X69540904Y-56244653D01*
X69520530Y-56231039D01*
X69497891Y-56221661D01*
X69473858Y-56216880D01*
X69449353Y-56216880D01*
X69425320Y-56221660D01*
X69402681Y-56231037D01*
X69382306Y-56244650D01*
X69376982Y-56249974D01*
X69342441Y-56278322D01*
X69310568Y-56295358D01*
X69275974Y-56305852D01*
X69233859Y-56310000D01*
X68626141Y-56310000D01*
X68584026Y-56305852D01*
X68549432Y-56295358D01*
X68509872Y-56274213D01*
X68503931Y-56270243D01*
X68481292Y-56260864D01*
X68457259Y-56256083D01*
X68432755Y-56256081D01*
X68408721Y-56260860D01*
X68386082Y-56270237D01*
X68380142Y-56274205D01*
X68340568Y-56295358D01*
X68305974Y-56305852D01*
X68263859Y-56310000D01*
X67656141Y-56310000D01*
X67614026Y-56305852D01*
X67579432Y-56295358D01*
X67547559Y-56278322D01*
X67519613Y-56255387D01*
X67496678Y-56227441D01*
X67479642Y-56195568D01*
X67469148Y-56160974D01*
X67465000Y-56118859D01*
X67465000Y-55461141D01*
X67469148Y-55419026D01*
X67479642Y-55384432D01*
X67496678Y-55352559D01*
X67519613Y-55324613D01*
X67547559Y-55301678D01*
X67579432Y-55284642D01*
X67614026Y-55274148D01*
X67656141Y-55270000D01*
X68263859Y-55270000D01*
X68305974Y-55274148D01*
X68340568Y-55284642D01*
X68380128Y-55305787D01*
X68386069Y-55309757D01*
X68408708Y-55319136D01*
X68432741Y-55323917D01*
X68457245Y-55323919D01*
X68481279Y-55319140D01*
X68503918Y-55309763D01*
X68509858Y-55305795D01*
X68549432Y-55284642D01*
X68584026Y-55274148D01*
X68626141Y-55270000D01*
X69233859Y-55270000D01*
X69275974Y-55274148D01*
X69310568Y-55284642D01*
X69342441Y-55301678D01*
X69359096Y-55315347D01*
X69379470Y-55328961D01*
X69402109Y-55338339D01*
X69426142Y-55343120D01*
X69450647Y-55343120D01*
X69474680Y-55338340D01*
X69497319Y-55328963D01*
X69517694Y-55315350D01*
X69523018Y-55310026D01*
X69557559Y-55281678D01*
X69589432Y-55264642D01*
X69624026Y-55254148D01*
X69666141Y-55250000D01*
X70273859Y-55250000D01*
X70315974Y-55254148D01*
X70315974Y-55254148D01*
G37*
G36*
X93670000Y-54470000D02*
X91570000Y-54470000D01*
X91570000Y-52370000D01*
X93670000Y-52370000D01*
X93670000Y-54470000D01*
X93670000Y-54470000D01*
G37*
G36*
X81387749Y-52125629D02*
X81412251Y-52125629D01*
X81418638Y-52125000D01*
X81881362Y-52125000D01*
X81887749Y-52125629D01*
X81912251Y-52125629D01*
X81918638Y-52125000D01*
X82381362Y-52125000D01*
X82387749Y-52125629D01*
X82412251Y-52125629D01*
X82418638Y-52125000D01*
X82881362Y-52125000D01*
X82887749Y-52125629D01*
X82912251Y-52125629D01*
X82918638Y-52125000D01*
X83381362Y-52125000D01*
X83387749Y-52125629D01*
X83412251Y-52125629D01*
X83418638Y-52125000D01*
X83881362Y-52125000D01*
X83887749Y-52125629D01*
X83912251Y-52125629D01*
X83918638Y-52125000D01*
X84381362Y-52125000D01*
X84387749Y-52125629D01*
X84412251Y-52125629D01*
X84418638Y-52125000D01*
X84881362Y-52125000D01*
X84887749Y-52125629D01*
X84912251Y-52125629D01*
X84918638Y-52125000D01*
X85381362Y-52125000D01*
X85387749Y-52125629D01*
X85412251Y-52125629D01*
X85418638Y-52125000D01*
X85881362Y-52125000D01*
X85887749Y-52125629D01*
X85912251Y-52125629D01*
X85918638Y-52125000D01*
X86381362Y-52125000D01*
X86387749Y-52125629D01*
X86412251Y-52125629D01*
X86418638Y-52125000D01*
X86881362Y-52125000D01*
X86909327Y-52127754D01*
X86930320Y-52134123D01*
X86949664Y-52144462D01*
X86966622Y-52158378D01*
X86980538Y-52175336D01*
X86990877Y-52194680D01*
X86997246Y-52215673D01*
X87000000Y-52243638D01*
X87000000Y-53881362D01*
X86997246Y-53909327D01*
X86990877Y-53930320D01*
X86980538Y-53949664D01*
X86966622Y-53966622D01*
X86949664Y-53980538D01*
X86930320Y-53990877D01*
X86909327Y-53997246D01*
X86881362Y-54000000D01*
X86418638Y-54000000D01*
X86412251Y-53999371D01*
X86387749Y-53999371D01*
X86381362Y-54000000D01*
X85918638Y-54000000D01*
X85912251Y-53999371D01*
X85887749Y-53999371D01*
X85881362Y-54000000D01*
X85418638Y-54000000D01*
X85412251Y-53999371D01*
X85387749Y-53999371D01*
X85381362Y-54000000D01*
X84918638Y-54000000D01*
X84912251Y-53999371D01*
X84887749Y-53999371D01*
X84881362Y-54000000D01*
X84418638Y-54000000D01*
X84412251Y-53999371D01*
X84387749Y-53999371D01*
X84381362Y-54000000D01*
X83918638Y-54000000D01*
X83912251Y-53999371D01*
X83887749Y-53999371D01*
X83881362Y-54000000D01*
X83418638Y-54000000D01*
X83412251Y-53999371D01*
X83387749Y-53999371D01*
X83381362Y-54000000D01*
X82918638Y-54000000D01*
X82912251Y-53999371D01*
X82887749Y-53999371D01*
X82881362Y-54000000D01*
X82418638Y-54000000D01*
X82412251Y-53999371D01*
X82387749Y-53999371D01*
X82381362Y-54000000D01*
X81918638Y-54000000D01*
X81912251Y-53999371D01*
X81887749Y-53999371D01*
X81881362Y-54000000D01*
X81418638Y-54000000D01*
X81412251Y-53999371D01*
X81387749Y-53999371D01*
X81381362Y-54000000D01*
X80918638Y-54000000D01*
X80890673Y-53997246D01*
X80869680Y-53990877D01*
X80850336Y-53980538D01*
X80833378Y-53966622D01*
X80819462Y-53949664D01*
X80809123Y-53930320D01*
X80802754Y-53909327D01*
X80800000Y-53881362D01*
X80800000Y-52243638D01*
X80802754Y-52215673D01*
X80809123Y-52194680D01*
X80819462Y-52175336D01*
X80833378Y-52158378D01*
X80850336Y-52144462D01*
X80869680Y-52134123D01*
X80890673Y-52127754D01*
X80918638Y-52125000D01*
X81381362Y-52125000D01*
X81387749Y-52125629D01*
X81387749Y-52125629D01*
G37*
G36*
X72129452Y-51549127D02*
X72267105Y-51576508D01*
X72439994Y-51648121D01*
X72595590Y-51752087D01*
X72727913Y-51884410D01*
X72831879Y-52040006D01*
X72903492Y-52212895D01*
X72940000Y-52396433D01*
X72940000Y-52583567D01*
X72903492Y-52767105D01*
X72831879Y-52939994D01*
X72727913Y-53095590D01*
X72595590Y-53227913D01*
X72439994Y-53331879D01*
X72267105Y-53403492D01*
X72129452Y-53430873D01*
X72083568Y-53440000D01*
X71896432Y-53440000D01*
X71850548Y-53430873D01*
X71712895Y-53403492D01*
X71540006Y-53331879D01*
X71384410Y-53227913D01*
X71252087Y-53095590D01*
X71148121Y-52939994D01*
X71076508Y-52767105D01*
X71040000Y-52583567D01*
X71040000Y-52396433D01*
X71076508Y-52212895D01*
X71148121Y-52040006D01*
X71252087Y-51884410D01*
X71384410Y-51752087D01*
X71540006Y-51648121D01*
X71712895Y-51576508D01*
X71850548Y-51549127D01*
X71896432Y-51540000D01*
X72083568Y-51540000D01*
X72129452Y-51549127D01*
X72129452Y-51549127D01*
G37*
G36*
X67249452Y-51549127D02*
X67387105Y-51576508D01*
X67559994Y-51648121D01*
X67715590Y-51752087D01*
X67847913Y-51884410D01*
X67951879Y-52040006D01*
X68023492Y-52212895D01*
X68060000Y-52396433D01*
X68060000Y-52583567D01*
X68023492Y-52767105D01*
X67951879Y-52939994D01*
X67847913Y-53095590D01*
X67715590Y-53227913D01*
X67559994Y-53331879D01*
X67387105Y-53403492D01*
X67249452Y-53430873D01*
X67203568Y-53440000D01*
X67016432Y-53440000D01*
X66970548Y-53430873D01*
X66832895Y-53403492D01*
X66660006Y-53331879D01*
X66504410Y-53227913D01*
X66372087Y-53095590D01*
X66268121Y-52939994D01*
X66196508Y-52767105D01*
X66160000Y-52583567D01*
X66160000Y-52396433D01*
X66196508Y-52212895D01*
X66268121Y-52040006D01*
X66372087Y-51884410D01*
X66504410Y-51752087D01*
X66660006Y-51648121D01*
X66832895Y-51576508D01*
X66970548Y-51549127D01*
X67016432Y-51540000D01*
X67203568Y-51540000D01*
X67249452Y-51549127D01*
X67249452Y-51549127D01*
G37*
G36*
X80584327Y-45802754D02*
X80605320Y-45809123D01*
X80624664Y-45819462D01*
X80641622Y-45833378D01*
X80655538Y-45850336D01*
X80665877Y-45869680D01*
X80672246Y-45890673D01*
X80675000Y-45918638D01*
X80675000Y-46381362D01*
X80674371Y-46387749D01*
X80674371Y-46412251D01*
X80675000Y-46418638D01*
X80675000Y-46881362D01*
X80674371Y-46887749D01*
X80674371Y-46912251D01*
X80675000Y-46918638D01*
X80675000Y-47381362D01*
X80674371Y-47387749D01*
X80674371Y-47412251D01*
X80675000Y-47418638D01*
X80675000Y-47881362D01*
X80674371Y-47887749D01*
X80674371Y-47912251D01*
X80675000Y-47918638D01*
X80675000Y-48381362D01*
X80674371Y-48387749D01*
X80674371Y-48412251D01*
X80675000Y-48418638D01*
X80675000Y-48881362D01*
X80674371Y-48887749D01*
X80674371Y-48912251D01*
X80675000Y-48918638D01*
X80675000Y-49381362D01*
X80674371Y-49387749D01*
X80674371Y-49412251D01*
X80675000Y-49418638D01*
X80675000Y-49881362D01*
X80674371Y-49887749D01*
X80674371Y-49912251D01*
X80675000Y-49918638D01*
X80675000Y-50381362D01*
X80674371Y-50387749D01*
X80674371Y-50412251D01*
X80675000Y-50418638D01*
X80675000Y-50881362D01*
X80674371Y-50887749D01*
X80674371Y-50912251D01*
X80675000Y-50918638D01*
X80675000Y-51381362D01*
X80674371Y-51387749D01*
X80674371Y-51412251D01*
X80675000Y-51418638D01*
X80675000Y-51881362D01*
X80672246Y-51909327D01*
X80665877Y-51930320D01*
X80655538Y-51949664D01*
X80641622Y-51966622D01*
X80624664Y-51980538D01*
X80605320Y-51990877D01*
X80584327Y-51997246D01*
X80556362Y-52000000D01*
X78918638Y-52000000D01*
X78890673Y-51997246D01*
X78869680Y-51990877D01*
X78850336Y-51980538D01*
X78833378Y-51966622D01*
X78819462Y-51949664D01*
X78809123Y-51930320D01*
X78802754Y-51909327D01*
X78800000Y-51881362D01*
X78800000Y-51418638D01*
X78800629Y-51412251D01*
X78800629Y-51387749D01*
X78800000Y-51381362D01*
X78800000Y-50918638D01*
X78800629Y-50912251D01*
X78800629Y-50887749D01*
X78800000Y-50881362D01*
X78800000Y-50418638D01*
X78800629Y-50412251D01*
X78800629Y-50387749D01*
X78800000Y-50381362D01*
X78800000Y-49918638D01*
X78800629Y-49912251D01*
X78800629Y-49887749D01*
X78800000Y-49881362D01*
X78800000Y-49418638D01*
X78800629Y-49412251D01*
X78800629Y-49387749D01*
X78800000Y-49381362D01*
X78800000Y-48918638D01*
X78800629Y-48912251D01*
X78800629Y-48887749D01*
X78800000Y-48881362D01*
X78800000Y-48418638D01*
X78800629Y-48412251D01*
X78800629Y-48387749D01*
X78800000Y-48381362D01*
X78800000Y-47918638D01*
X78800629Y-47912251D01*
X78800629Y-47887749D01*
X78800000Y-47881362D01*
X78800000Y-47418638D01*
X78800629Y-47412251D01*
X78800629Y-47387749D01*
X78800000Y-47381362D01*
X78800000Y-46918638D01*
X78800629Y-46912251D01*
X78800629Y-46887749D01*
X78800000Y-46881362D01*
X78800000Y-46418638D01*
X78800629Y-46412251D01*
X78800629Y-46387749D01*
X78800000Y-46381362D01*
X78800000Y-45918638D01*
X78802754Y-45890673D01*
X78809123Y-45869680D01*
X78819462Y-45850336D01*
X78833378Y-45833378D01*
X78850336Y-45819462D01*
X78869680Y-45809123D01*
X78890673Y-45802754D01*
X78918638Y-45800000D01*
X80556362Y-45800000D01*
X80584327Y-45802754D01*
X80584327Y-45802754D01*
G37*
G36*
X88909327Y-45802754D02*
X88930320Y-45809123D01*
X88949664Y-45819462D01*
X88966622Y-45833378D01*
X88980538Y-45850336D01*
X88990877Y-45869680D01*
X88997246Y-45890673D01*
X89000000Y-45918638D01*
X89000000Y-46381362D01*
X88999371Y-46387749D01*
X88999371Y-46412251D01*
X89000000Y-46418638D01*
X89000000Y-46881362D01*
X88999371Y-46887749D01*
X88999371Y-46912251D01*
X89000000Y-46918638D01*
X89000000Y-47381362D01*
X88999371Y-47387749D01*
X88999371Y-47412251D01*
X89000000Y-47418638D01*
X89000000Y-47881362D01*
X88999371Y-47887749D01*
X88999371Y-47912251D01*
X89000000Y-47918638D01*
X89000000Y-48381362D01*
X88999371Y-48387749D01*
X88999371Y-48412251D01*
X89000000Y-48418638D01*
X89000000Y-48881362D01*
X88999371Y-48887749D01*
X88999371Y-48912251D01*
X89000000Y-48918638D01*
X89000000Y-49381362D01*
X88999371Y-49387749D01*
X88999371Y-49412251D01*
X89000000Y-49418638D01*
X89000000Y-49881362D01*
X88999371Y-49887749D01*
X88999371Y-49912251D01*
X89000000Y-49918638D01*
X89000000Y-50381362D01*
X88999371Y-50387749D01*
X88999371Y-50412251D01*
X89000000Y-50418638D01*
X89000000Y-50881362D01*
X88999371Y-50887749D01*
X88999371Y-50912251D01*
X89000000Y-50918638D01*
X89000000Y-51381362D01*
X88999371Y-51387749D01*
X88999371Y-51412251D01*
X89000000Y-51418638D01*
X89000000Y-51881362D01*
X88997246Y-51909327D01*
X88990877Y-51930320D01*
X88980538Y-51949664D01*
X88966622Y-51966622D01*
X88949664Y-51980538D01*
X88930320Y-51990877D01*
X88909327Y-51997246D01*
X88881362Y-52000000D01*
X87243638Y-52000000D01*
X87215673Y-51997246D01*
X87194680Y-51990877D01*
X87175336Y-51980538D01*
X87158378Y-51966622D01*
X87144462Y-51949664D01*
X87134123Y-51930320D01*
X87127754Y-51909327D01*
X87125000Y-51881362D01*
X87125000Y-51418638D01*
X87125629Y-51412251D01*
X87125629Y-51387749D01*
X87125000Y-51381362D01*
X87125000Y-50918638D01*
X87125629Y-50912251D01*
X87125629Y-50887749D01*
X87125000Y-50881362D01*
X87125000Y-50418638D01*
X87125629Y-50412251D01*
X87125629Y-50387749D01*
X87125000Y-50381362D01*
X87125000Y-49918638D01*
X87125629Y-49912251D01*
X87125629Y-49887749D01*
X87125000Y-49881362D01*
X87125000Y-49418638D01*
X87125629Y-49412251D01*
X87125629Y-49387749D01*
X87125000Y-49381362D01*
X87125000Y-48918638D01*
X87125629Y-48912251D01*
X87125629Y-48887749D01*
X87125000Y-48881362D01*
X87125000Y-48418638D01*
X87125629Y-48412251D01*
X87125629Y-48387749D01*
X87125000Y-48381362D01*
X87125000Y-47918638D01*
X87125629Y-47912251D01*
X87125629Y-47887749D01*
X87125000Y-47881362D01*
X87125000Y-47418638D01*
X87125629Y-47412251D01*
X87125629Y-47387749D01*
X87125000Y-47381362D01*
X87125000Y-46918638D01*
X87125629Y-46912251D01*
X87125629Y-46887749D01*
X87125000Y-46881362D01*
X87125000Y-46418638D01*
X87125629Y-46412251D01*
X87125629Y-46387749D01*
X87125000Y-46381362D01*
X87125000Y-45918638D01*
X87127754Y-45890673D01*
X87134123Y-45869680D01*
X87144462Y-45850336D01*
X87158378Y-45833378D01*
X87175336Y-45819462D01*
X87194680Y-45809123D01*
X87215673Y-45802754D01*
X87243638Y-45800000D01*
X88881362Y-45800000D01*
X88909327Y-45802754D01*
X88909327Y-45802754D01*
G37*
G36*
X85764456Y-46903826D02*
X85795907Y-46913366D01*
X85824885Y-46928856D01*
X85850293Y-46949707D01*
X85871144Y-46975115D01*
X85886634Y-47004093D01*
X85896174Y-47035544D01*
X85900000Y-47074391D01*
X85900000Y-50725609D01*
X85896174Y-50764456D01*
X85886634Y-50795907D01*
X85871144Y-50824885D01*
X85850293Y-50850293D01*
X85824885Y-50871144D01*
X85795907Y-50886634D01*
X85764456Y-50896174D01*
X85725609Y-50900000D01*
X82074391Y-50900000D01*
X82035544Y-50896174D01*
X82004093Y-50886634D01*
X81975115Y-50871144D01*
X81949707Y-50850293D01*
X81928856Y-50824885D01*
X81913366Y-50795907D01*
X81903826Y-50764456D01*
X81900000Y-50725609D01*
X81900000Y-47074391D01*
X81903826Y-47035544D01*
X81913366Y-47004093D01*
X81928856Y-46975115D01*
X81949707Y-46949707D01*
X81975115Y-46928856D01*
X82004093Y-46913366D01*
X82035544Y-46903826D01*
X82074391Y-46900000D01*
X85725609Y-46900000D01*
X85764456Y-46903826D01*
X85764456Y-46903826D01*
G37*
G36*
X93670000Y-50820000D02*
X91570000Y-50820000D01*
X91570000Y-48720000D01*
X93670000Y-48720000D01*
X93670000Y-50820000D01*
X93670000Y-50820000D01*
G37*
G36*
X69166122Y-48370517D02*
X69214085Y-48385066D01*
X69258275Y-48408686D01*
X69297018Y-48440482D01*
X69328814Y-48479225D01*
X69352434Y-48523415D01*
X69366983Y-48571378D01*
X69372500Y-48627391D01*
X69372500Y-49452609D01*
X69366983Y-49508622D01*
X69352434Y-49556585D01*
X69328814Y-49600775D01*
X69297018Y-49639518D01*
X69258275Y-49671314D01*
X69214085Y-49694934D01*
X69166122Y-49709483D01*
X69110109Y-49715000D01*
X68359891Y-49715000D01*
X68303878Y-49709483D01*
X68255915Y-49694934D01*
X68211725Y-49671314D01*
X68172982Y-49639518D01*
X68141186Y-49600775D01*
X68117566Y-49556585D01*
X68103017Y-49508622D01*
X68097500Y-49452609D01*
X68097500Y-48627391D01*
X68103017Y-48571378D01*
X68117566Y-48523415D01*
X68141186Y-48479225D01*
X68172982Y-48440482D01*
X68211725Y-48408686D01*
X68255915Y-48385066D01*
X68303878Y-48370517D01*
X68359891Y-48365000D01*
X69110109Y-48365000D01*
X69166122Y-48370517D01*
X69166122Y-48370517D01*
G37*
G36*
X70741122Y-48370517D02*
X70789085Y-48385066D01*
X70833275Y-48408686D01*
X70872018Y-48440482D01*
X70903814Y-48479225D01*
X70927434Y-48523415D01*
X70941983Y-48571378D01*
X70947500Y-48627391D01*
X70947500Y-49452609D01*
X70941983Y-49508622D01*
X70927434Y-49556585D01*
X70903814Y-49600775D01*
X70872018Y-49639518D01*
X70833275Y-49671314D01*
X70789085Y-49694934D01*
X70741122Y-49709483D01*
X70685109Y-49715000D01*
X69934891Y-49715000D01*
X69878878Y-49709483D01*
X69830915Y-49694934D01*
X69786725Y-49671314D01*
X69747982Y-49639518D01*
X69716186Y-49600775D01*
X69692566Y-49556585D01*
X69678017Y-49508622D01*
X69672500Y-49452609D01*
X69672500Y-48627391D01*
X69678017Y-48571378D01*
X69692566Y-48523415D01*
X69716186Y-48479225D01*
X69747982Y-48440482D01*
X69786725Y-48408686D01*
X69830915Y-48385066D01*
X69878878Y-48370517D01*
X69934891Y-48365000D01*
X70685109Y-48365000D01*
X70741122Y-48370517D01*
X70741122Y-48370517D01*
G37*
G36*
X92747727Y-46187500D02*
X92825836Y-46195193D01*
X92957787Y-46235220D01*
X93023763Y-46255233D01*
X93206172Y-46352733D01*
X93366054Y-46483946D01*
X93497267Y-46643828D01*
X93594767Y-46826237D01*
X93602356Y-46851256D01*
X93654807Y-47024164D01*
X93675080Y-47230000D01*
X93654807Y-47435836D01*
X93639384Y-47486679D01*
X93594767Y-47633763D01*
X93497267Y-47816172D01*
X93366054Y-47976054D01*
X93206172Y-48107267D01*
X93023763Y-48204767D01*
X92957787Y-48224780D01*
X92825836Y-48264807D01*
X92748707Y-48272404D01*
X92671580Y-48280000D01*
X92568420Y-48280000D01*
X92491293Y-48272404D01*
X92414164Y-48264807D01*
X92282213Y-48224780D01*
X92216237Y-48204767D01*
X92033828Y-48107267D01*
X91873946Y-47976054D01*
X91742733Y-47816172D01*
X91645233Y-47633763D01*
X91600616Y-47486679D01*
X91585193Y-47435836D01*
X91564920Y-47230000D01*
X91585193Y-47024164D01*
X91637644Y-46851256D01*
X91645233Y-46826237D01*
X91742733Y-46643828D01*
X91873946Y-46483946D01*
X92033828Y-46352733D01*
X92216237Y-46255233D01*
X92282213Y-46235220D01*
X92414164Y-46195193D01*
X92492273Y-46187500D01*
X92568420Y-46180000D01*
X92671580Y-46180000D01*
X92747727Y-46187500D01*
X92747727Y-46187500D01*
G37*
G36*
X74770974Y-45944148D02*
X74805568Y-45954642D01*
X74845128Y-45975787D01*
X74851069Y-45979757D01*
X74873708Y-45989136D01*
X74897741Y-45993917D01*
X74922245Y-45993919D01*
X74946279Y-45989140D01*
X74968918Y-45979763D01*
X74974858Y-45975795D01*
X75014432Y-45954642D01*
X75049026Y-45944148D01*
X75091141Y-45940000D01*
X75698859Y-45940000D01*
X75740974Y-45944148D01*
X75775568Y-45954642D01*
X75807441Y-45971678D01*
X75835387Y-45994613D01*
X75858322Y-46022559D01*
X75875358Y-46054432D01*
X75885852Y-46089026D01*
X75890000Y-46131141D01*
X75890000Y-46788859D01*
X75885852Y-46830974D01*
X75875358Y-46865568D01*
X75858322Y-46897441D01*
X75855648Y-46900699D01*
X75842034Y-46921073D01*
X75832656Y-46943712D01*
X75827875Y-46967745D01*
X75827875Y-46992249D01*
X75832655Y-47016283D01*
X75842032Y-47038922D01*
X75855648Y-47059301D01*
X75858322Y-47062559D01*
X75875358Y-47094432D01*
X75885852Y-47129026D01*
X75890000Y-47171141D01*
X75890000Y-47828859D01*
X75885852Y-47870974D01*
X75875358Y-47905568D01*
X75858322Y-47937441D01*
X75835387Y-47965387D01*
X75807441Y-47988322D01*
X75775568Y-48005358D01*
X75740974Y-48015852D01*
X75698859Y-48020000D01*
X75091141Y-48020000D01*
X75049026Y-48015852D01*
X75014432Y-48005358D01*
X74974872Y-47984213D01*
X74968931Y-47980243D01*
X74946292Y-47970864D01*
X74922259Y-47966083D01*
X74897755Y-47966081D01*
X74873721Y-47970860D01*
X74851082Y-47980237D01*
X74845142Y-47984205D01*
X74805568Y-48005358D01*
X74770974Y-48015852D01*
X74728859Y-48020000D01*
X74121141Y-48020000D01*
X74079026Y-48015852D01*
X74044432Y-48005358D01*
X74012559Y-47988322D01*
X73984613Y-47965387D01*
X73961678Y-47937441D01*
X73945240Y-47906687D01*
X73931627Y-47886312D01*
X73914300Y-47868985D01*
X73893925Y-47855371D01*
X73871286Y-47845994D01*
X73847253Y-47841213D01*
X73822748Y-47841213D01*
X73798715Y-47845993D01*
X73776076Y-47855371D01*
X73755701Y-47868984D01*
X73738374Y-47886311D01*
X73724760Y-47906686D01*
X73715383Y-47929325D01*
X73710602Y-47953358D01*
X73710276Y-47960000D01*
X71210000Y-47960000D01*
X71210000Y-46925611D01*
X73710000Y-46925611D01*
X73710000Y-47034389D01*
X73712402Y-47058775D01*
X73719515Y-47082224D01*
X73731066Y-47103835D01*
X73746612Y-47122777D01*
X73765554Y-47138323D01*
X73787165Y-47149874D01*
X73810614Y-47156987D01*
X73835000Y-47159389D01*
X73859386Y-47156987D01*
X73882835Y-47149874D01*
X73904446Y-47138323D01*
X73923388Y-47122777D01*
X73938934Y-47103835D01*
X73945240Y-47093313D01*
X73961678Y-47062559D01*
X73964352Y-47059301D01*
X73977966Y-47038927D01*
X73987344Y-47016288D01*
X73992125Y-46992255D01*
X73992125Y-46967751D01*
X73987345Y-46943717D01*
X73977968Y-46921078D01*
X73964352Y-46900699D01*
X73961678Y-46897441D01*
X73945240Y-46866687D01*
X73931627Y-46846312D01*
X73914300Y-46828985D01*
X73893925Y-46815371D01*
X73871286Y-46805994D01*
X73847253Y-46801213D01*
X73822748Y-46801213D01*
X73798715Y-46805993D01*
X73776076Y-46815371D01*
X73755701Y-46828984D01*
X73738374Y-46846311D01*
X73724760Y-46866686D01*
X73715383Y-46889325D01*
X73710602Y-46913358D01*
X73710000Y-46925611D01*
X71210000Y-46925611D01*
X71210000Y-46060000D01*
X73729016Y-46060000D01*
X73731066Y-46063835D01*
X73746612Y-46082777D01*
X73765554Y-46098323D01*
X73787165Y-46109874D01*
X73810614Y-46116987D01*
X73835000Y-46119389D01*
X73859386Y-46116987D01*
X73882835Y-46109874D01*
X73904446Y-46098323D01*
X73923388Y-46082777D01*
X73938934Y-46063835D01*
X73945240Y-46053313D01*
X73961678Y-46022559D01*
X73984613Y-45994613D01*
X74012559Y-45971678D01*
X74044432Y-45954642D01*
X74079026Y-45944148D01*
X74121141Y-45940000D01*
X74728859Y-45940000D01*
X74770974Y-45944148D01*
X74770974Y-45944148D01*
G37*
G36*
X66510000Y-47960000D02*
X64010000Y-47960000D01*
X64010000Y-46060000D01*
X66510000Y-46060000D01*
X66510000Y-47960000D01*
X66510000Y-47960000D01*
G37*
G36*
X92748707Y-43647597D02*
X92825836Y-43655193D01*
X92957787Y-43695220D01*
X93023763Y-43715233D01*
X93206172Y-43812733D01*
X93366054Y-43943946D01*
X93497267Y-44103828D01*
X93594767Y-44286237D01*
X93612111Y-44343415D01*
X93654807Y-44484164D01*
X93675080Y-44690000D01*
X93654807Y-44895836D01*
X93614780Y-45027787D01*
X93594767Y-45093763D01*
X93497267Y-45276172D01*
X93366054Y-45436054D01*
X93206172Y-45567267D01*
X93023763Y-45664767D01*
X92957787Y-45684780D01*
X92825836Y-45724807D01*
X92748707Y-45732403D01*
X92671580Y-45740000D01*
X92568420Y-45740000D01*
X92491293Y-45732403D01*
X92414164Y-45724807D01*
X92282213Y-45684780D01*
X92216237Y-45664767D01*
X92033828Y-45567267D01*
X91873946Y-45436054D01*
X91742733Y-45276172D01*
X91645233Y-45093763D01*
X91625220Y-45027787D01*
X91585193Y-44895836D01*
X91564920Y-44690000D01*
X91585193Y-44484164D01*
X91627889Y-44343415D01*
X91645233Y-44286237D01*
X91742733Y-44103828D01*
X91873946Y-43943946D01*
X92033828Y-43812733D01*
X92216237Y-43715233D01*
X92282213Y-43695220D01*
X92414164Y-43655193D01*
X92491293Y-43647597D01*
X92568420Y-43640000D01*
X92671580Y-43640000D01*
X92748707Y-43647597D01*
X92748707Y-43647597D01*
G37*
G36*
X81387749Y-43800629D02*
X81412251Y-43800629D01*
X81418638Y-43800000D01*
X81881362Y-43800000D01*
X81887749Y-43800629D01*
X81912251Y-43800629D01*
X81918638Y-43800000D01*
X82381362Y-43800000D01*
X82387749Y-43800629D01*
X82412251Y-43800629D01*
X82418638Y-43800000D01*
X82881362Y-43800000D01*
X82887749Y-43800629D01*
X82912251Y-43800629D01*
X82918638Y-43800000D01*
X83381362Y-43800000D01*
X83387749Y-43800629D01*
X83412251Y-43800629D01*
X83418638Y-43800000D01*
X83881362Y-43800000D01*
X83887749Y-43800629D01*
X83912251Y-43800629D01*
X83918638Y-43800000D01*
X84381362Y-43800000D01*
X84387749Y-43800629D01*
X84412251Y-43800629D01*
X84418638Y-43800000D01*
X84881362Y-43800000D01*
X84887749Y-43800629D01*
X84912251Y-43800629D01*
X84918638Y-43800000D01*
X85381362Y-43800000D01*
X85387749Y-43800629D01*
X85412251Y-43800629D01*
X85418638Y-43800000D01*
X85881362Y-43800000D01*
X85887749Y-43800629D01*
X85912251Y-43800629D01*
X85918638Y-43800000D01*
X86381362Y-43800000D01*
X86387749Y-43800629D01*
X86412251Y-43800629D01*
X86418638Y-43800000D01*
X86881362Y-43800000D01*
X86909327Y-43802754D01*
X86930320Y-43809123D01*
X86949664Y-43819462D01*
X86966622Y-43833378D01*
X86980538Y-43850336D01*
X86990877Y-43869680D01*
X86997246Y-43890673D01*
X87000000Y-43918638D01*
X87000000Y-45556362D01*
X86997246Y-45584327D01*
X86990877Y-45605320D01*
X86980538Y-45624664D01*
X86966622Y-45641622D01*
X86949664Y-45655538D01*
X86930320Y-45665877D01*
X86909327Y-45672246D01*
X86881362Y-45675000D01*
X86418638Y-45675000D01*
X86412251Y-45674371D01*
X86387749Y-45674371D01*
X86381362Y-45675000D01*
X85918638Y-45675000D01*
X85912251Y-45674371D01*
X85887749Y-45674371D01*
X85881362Y-45675000D01*
X85418638Y-45675000D01*
X85412251Y-45674371D01*
X85387749Y-45674371D01*
X85381362Y-45675000D01*
X84918638Y-45675000D01*
X84912251Y-45674371D01*
X84887749Y-45674371D01*
X84881362Y-45675000D01*
X84418638Y-45675000D01*
X84412251Y-45674371D01*
X84387749Y-45674371D01*
X84381362Y-45675000D01*
X83918638Y-45675000D01*
X83912251Y-45674371D01*
X83887749Y-45674371D01*
X83881362Y-45675000D01*
X83418638Y-45675000D01*
X83412251Y-45674371D01*
X83387749Y-45674371D01*
X83381362Y-45675000D01*
X82918638Y-45675000D01*
X82912251Y-45674371D01*
X82887749Y-45674371D01*
X82881362Y-45675000D01*
X82418638Y-45675000D01*
X82412251Y-45674371D01*
X82387749Y-45674371D01*
X82381362Y-45675000D01*
X81918638Y-45675000D01*
X81912251Y-45674371D01*
X81887749Y-45674371D01*
X81881362Y-45675000D01*
X81418638Y-45675000D01*
X81412251Y-45674371D01*
X81387749Y-45674371D01*
X81381362Y-45675000D01*
X80918638Y-45675000D01*
X80890673Y-45672246D01*
X80869680Y-45665877D01*
X80850336Y-45655538D01*
X80833378Y-45641622D01*
X80819462Y-45624664D01*
X80809123Y-45605320D01*
X80802754Y-45584327D01*
X80800000Y-45556362D01*
X80800000Y-43918638D01*
X80802754Y-43890673D01*
X80809123Y-43869680D01*
X80819462Y-43850336D01*
X80833378Y-43833378D01*
X80850336Y-43819462D01*
X80869680Y-43809123D01*
X80890673Y-43802754D01*
X80918638Y-43800000D01*
X81381362Y-43800000D01*
X81387749Y-43800629D01*
X81387749Y-43800629D01*
G37*
G36*
X79848622Y-44190517D02*
X79896585Y-44205066D01*
X79940775Y-44228686D01*
X79979518Y-44260482D01*
X80011314Y-44299225D01*
X80034934Y-44343415D01*
X80049483Y-44391378D01*
X80055000Y-44447391D01*
X80055000Y-45272609D01*
X80049483Y-45328622D01*
X80034934Y-45376585D01*
X80011314Y-45420775D01*
X79979518Y-45459518D01*
X79940775Y-45491314D01*
X79896585Y-45514934D01*
X79848622Y-45529483D01*
X79792609Y-45535000D01*
X79042391Y-45535000D01*
X78986378Y-45529483D01*
X78938415Y-45514934D01*
X78894225Y-45491314D01*
X78855482Y-45459518D01*
X78823686Y-45420775D01*
X78800066Y-45376585D01*
X78785517Y-45328622D01*
X78780000Y-45272609D01*
X78780000Y-44447391D01*
X78785517Y-44391378D01*
X78800066Y-44343415D01*
X78823686Y-44299225D01*
X78855482Y-44260482D01*
X78894225Y-44228686D01*
X78938415Y-44205066D01*
X78986378Y-44190517D01*
X79042391Y-44185000D01*
X79792609Y-44185000D01*
X79848622Y-44190517D01*
X79848622Y-44190517D01*
G37*
G36*
X78273622Y-44190517D02*
X78321585Y-44205066D01*
X78365775Y-44228686D01*
X78404518Y-44260482D01*
X78436314Y-44299225D01*
X78459934Y-44343415D01*
X78474483Y-44391378D01*
X78480000Y-44447391D01*
X78480000Y-45272609D01*
X78474483Y-45328622D01*
X78459934Y-45376585D01*
X78436314Y-45420775D01*
X78404518Y-45459518D01*
X78365775Y-45491314D01*
X78321585Y-45514934D01*
X78273622Y-45529483D01*
X78217609Y-45535000D01*
X77467391Y-45535000D01*
X77411378Y-45529483D01*
X77363415Y-45514934D01*
X77319225Y-45491314D01*
X77280482Y-45459518D01*
X77248686Y-45420775D01*
X77225066Y-45376585D01*
X77210517Y-45328622D01*
X77205000Y-45272609D01*
X77205000Y-44447391D01*
X77210517Y-44391378D01*
X77225066Y-44343415D01*
X77248686Y-44299225D01*
X77280482Y-44260482D01*
X77319225Y-44228686D01*
X77363415Y-44205066D01*
X77411378Y-44190517D01*
X77467391Y-44185000D01*
X78217609Y-44185000D01*
X78273622Y-44190517D01*
X78273622Y-44190517D01*
G37*
G36*
X92748707Y-41107597D02*
X92825836Y-41115193D01*
X92957787Y-41155220D01*
X93023763Y-41175233D01*
X93206172Y-41272733D01*
X93366054Y-41403946D01*
X93497267Y-41563828D01*
X93594767Y-41746237D01*
X93594767Y-41746238D01*
X93654807Y-41944164D01*
X93675080Y-42150000D01*
X93654807Y-42355836D01*
X93614780Y-42487787D01*
X93594767Y-42553763D01*
X93497267Y-42736172D01*
X93366054Y-42896054D01*
X93206172Y-43027267D01*
X93023763Y-43124767D01*
X92957787Y-43144780D01*
X92825836Y-43184807D01*
X92748707Y-43192403D01*
X92671580Y-43200000D01*
X92568420Y-43200000D01*
X92491293Y-43192403D01*
X92414164Y-43184807D01*
X92282213Y-43144780D01*
X92216237Y-43124767D01*
X92033828Y-43027267D01*
X91873946Y-42896054D01*
X91742733Y-42736172D01*
X91645233Y-42553763D01*
X91625220Y-42487787D01*
X91585193Y-42355836D01*
X91564920Y-42150000D01*
X91585193Y-41944164D01*
X91645233Y-41746238D01*
X91645233Y-41746237D01*
X91742733Y-41563828D01*
X91873946Y-41403946D01*
X92033828Y-41272733D01*
X92216237Y-41175233D01*
X92282213Y-41155220D01*
X92414164Y-41115193D01*
X92491293Y-41107597D01*
X92568420Y-41100000D01*
X92671580Y-41100000D01*
X92748707Y-41107597D01*
X92748707Y-41107597D01*
G37*
G36*
X65777516Y-39404946D02*
X65819910Y-39417806D01*
X65858974Y-39438686D01*
X65893214Y-39466786D01*
X65921314Y-39501026D01*
X65942194Y-39540090D01*
X65955054Y-39582484D01*
X65960000Y-39632702D01*
X65960000Y-41167298D01*
X65955054Y-41217516D01*
X65942194Y-41259910D01*
X65921314Y-41298974D01*
X65893214Y-41333214D01*
X65858974Y-41361314D01*
X65819910Y-41382194D01*
X65777516Y-41395054D01*
X65727298Y-41400000D01*
X63192702Y-41400000D01*
X63142484Y-41395054D01*
X63100090Y-41382194D01*
X63061026Y-41361314D01*
X63026786Y-41333214D01*
X62998686Y-41298974D01*
X62977806Y-41259910D01*
X62964946Y-41217516D01*
X62960000Y-41167298D01*
X62960000Y-39632702D01*
X62964946Y-39582484D01*
X62977806Y-39540090D01*
X62998686Y-39501026D01*
X63026786Y-39466786D01*
X63061026Y-39438686D01*
X63100090Y-39417806D01*
X63142484Y-39404946D01*
X63192702Y-39400000D01*
X65727298Y-39400000D01*
X65777516Y-39404946D01*
X65777516Y-39404946D01*
G37*
G36*
X69377516Y-39404946D02*
X69419910Y-39417806D01*
X69458974Y-39438686D01*
X69493214Y-39466786D01*
X69521316Y-39501028D01*
X69524761Y-39507474D01*
X69538375Y-39527849D01*
X69555702Y-39545176D01*
X69576077Y-39558789D01*
X69598716Y-39568166D01*
X69622750Y-39572946D01*
X69647254Y-39572946D01*
X69671287Y-39568165D01*
X69693926Y-39558787D01*
X69714301Y-39545173D01*
X69731628Y-39527846D01*
X69745239Y-39507474D01*
X69748684Y-39501028D01*
X69776786Y-39466786D01*
X69811026Y-39438686D01*
X69850090Y-39417806D01*
X69892484Y-39404946D01*
X69942702Y-39400000D01*
X72477298Y-39400000D01*
X72527516Y-39404946D01*
X72569910Y-39417806D01*
X72608974Y-39438686D01*
X72643214Y-39466786D01*
X72671314Y-39501026D01*
X72692194Y-39540090D01*
X72705054Y-39582484D01*
X72710000Y-39632702D01*
X72710000Y-41167298D01*
X72705054Y-41217516D01*
X72692194Y-41259910D01*
X72671314Y-41298974D01*
X72643214Y-41333214D01*
X72608974Y-41361314D01*
X72569910Y-41382194D01*
X72527516Y-41395054D01*
X72477298Y-41400000D01*
X69942702Y-41400000D01*
X69892484Y-41395054D01*
X69850090Y-41382194D01*
X69811026Y-41361314D01*
X69776786Y-41333214D01*
X69748684Y-41298972D01*
X69745239Y-41292526D01*
X69731625Y-41272151D01*
X69714298Y-41254824D01*
X69693923Y-41241211D01*
X69671284Y-41231834D01*
X69647250Y-41227054D01*
X69622746Y-41227054D01*
X69598713Y-41231835D01*
X69576074Y-41241213D01*
X69555699Y-41254827D01*
X69538372Y-41272154D01*
X69524761Y-41292526D01*
X69521316Y-41298972D01*
X69493214Y-41333214D01*
X69458974Y-41361314D01*
X69419910Y-41382194D01*
X69377516Y-41395054D01*
X69327298Y-41400000D01*
X66792702Y-41400000D01*
X66742484Y-41395054D01*
X66700090Y-41382194D01*
X66661026Y-41361314D01*
X66626786Y-41333214D01*
X66598686Y-41298974D01*
X66577806Y-41259910D01*
X66564946Y-41217516D01*
X66560000Y-41167298D01*
X66560000Y-39632702D01*
X66564946Y-39582484D01*
X66577806Y-39540090D01*
X66598686Y-39501026D01*
X66626786Y-39466786D01*
X66661026Y-39438686D01*
X66700090Y-39417806D01*
X66742484Y-39404946D01*
X66792702Y-39400000D01*
X69327298Y-39400000D01*
X69377516Y-39404946D01*
X69377516Y-39404946D01*
G37*
G36*
X76127516Y-39404946D02*
X76169910Y-39417806D01*
X76208974Y-39438686D01*
X76243214Y-39466786D01*
X76271314Y-39501026D01*
X76292194Y-39540090D01*
X76305054Y-39582484D01*
X76310000Y-39632702D01*
X76310000Y-41167298D01*
X76305054Y-41217516D01*
X76292194Y-41259910D01*
X76271314Y-41298974D01*
X76243214Y-41333214D01*
X76208974Y-41361314D01*
X76169910Y-41382194D01*
X76127516Y-41395054D01*
X76077298Y-41400000D01*
X73542702Y-41400000D01*
X73492484Y-41395054D01*
X73450090Y-41382194D01*
X73411026Y-41361314D01*
X73376786Y-41333214D01*
X73348686Y-41298974D01*
X73327806Y-41259910D01*
X73314946Y-41217516D01*
X73310000Y-41167298D01*
X73310000Y-39632702D01*
X73314946Y-39582484D01*
X73327806Y-39540090D01*
X73348686Y-39501026D01*
X73376786Y-39466786D01*
X73411026Y-39438686D01*
X73450090Y-39417806D01*
X73492484Y-39404946D01*
X73542702Y-39400000D01*
X76077298Y-39400000D01*
X76127516Y-39404946D01*
X76127516Y-39404946D01*
G37*
G36*
X83300000Y-39095000D02*
X81780000Y-39095000D01*
X81780000Y-36535000D01*
X83300000Y-36535000D01*
X83300000Y-39095000D01*
X83300000Y-39095000D01*
G37*
G36*
X91159516Y-35672946D02*
X91201910Y-35685806D01*
X91240974Y-35706686D01*
X91275214Y-35734786D01*
X91303314Y-35769026D01*
X91324194Y-35808090D01*
X91337054Y-35850484D01*
X91342000Y-35900702D01*
X91342000Y-38835298D01*
X91337054Y-38885516D01*
X91324194Y-38927910D01*
X91303314Y-38966974D01*
X91275214Y-39001214D01*
X91240974Y-39029314D01*
X91201910Y-39050194D01*
X91159516Y-39063054D01*
X91109298Y-39068000D01*
X89574702Y-39068000D01*
X89524484Y-39063054D01*
X89482090Y-39050194D01*
X89443026Y-39029314D01*
X89408786Y-39001214D01*
X89380686Y-38966974D01*
X89359806Y-38927910D01*
X89346946Y-38885516D01*
X89342000Y-38835298D01*
X89342000Y-35900702D01*
X89346946Y-35850484D01*
X89359806Y-35808090D01*
X89380686Y-35769026D01*
X89408786Y-35734786D01*
X89443026Y-35706686D01*
X89482090Y-35685806D01*
X89524484Y-35672946D01*
X89574702Y-35668000D01*
X91109298Y-35668000D01*
X91159516Y-35672946D01*
X91159516Y-35672946D01*
G37*
G36*
X85870000Y-39037000D02*
X84350000Y-39037000D01*
X84350000Y-36477000D01*
X85870000Y-36477000D01*
X85870000Y-39037000D01*
X85870000Y-39037000D01*
G37*
G36*
X74395975Y-31399147D02*
X74430569Y-31409641D01*
X74462443Y-31426677D01*
X74477339Y-31438903D01*
X74497714Y-31452517D01*
X74520353Y-31461895D01*
X74544386Y-31466676D01*
X74568890Y-31466676D01*
X74592924Y-31461896D01*
X74615563Y-31452519D01*
X74628695Y-31443744D01*
X74664432Y-31424642D01*
X74699026Y-31414148D01*
X74741141Y-31410000D01*
X75398859Y-31410000D01*
X75440974Y-31414148D01*
X75475568Y-31424642D01*
X75507441Y-31441678D01*
X75535387Y-31464613D01*
X75558322Y-31492559D01*
X75575358Y-31524432D01*
X75585852Y-31559026D01*
X75590000Y-31601141D01*
X75590000Y-32208859D01*
X75585852Y-32250974D01*
X75575358Y-32285568D01*
X75554213Y-32325128D01*
X75550243Y-32331069D01*
X75540864Y-32353708D01*
X75536083Y-32377741D01*
X75536081Y-32402245D01*
X75540860Y-32426279D01*
X75550237Y-32448918D01*
X75554205Y-32454858D01*
X75575358Y-32494432D01*
X75585852Y-32529026D01*
X75590000Y-32571141D01*
X75590000Y-33178859D01*
X75585852Y-33220974D01*
X75575358Y-33255568D01*
X75558320Y-33287445D01*
X75546545Y-33301792D01*
X75532931Y-33322166D01*
X75523553Y-33344805D01*
X75518772Y-33368838D01*
X75518772Y-33393343D01*
X75523552Y-33417376D01*
X75532929Y-33440015D01*
X75546542Y-33460389D01*
X75548320Y-33462556D01*
X75565358Y-33494432D01*
X75575852Y-33529026D01*
X75580000Y-33571141D01*
X75580000Y-34178859D01*
X75575852Y-34220974D01*
X75565358Y-34255568D01*
X75544213Y-34295128D01*
X75540243Y-34301069D01*
X75530864Y-34323708D01*
X75526083Y-34347741D01*
X75526081Y-34372245D01*
X75530860Y-34396279D01*
X75540237Y-34418918D01*
X75544205Y-34424858D01*
X75565358Y-34464432D01*
X75575852Y-34499026D01*
X75580000Y-34541141D01*
X75580000Y-35148859D01*
X75575852Y-35190974D01*
X75565358Y-35225568D01*
X75548322Y-35257441D01*
X75525387Y-35285387D01*
X75497441Y-35308322D01*
X75465568Y-35325358D01*
X75430974Y-35335852D01*
X75388859Y-35340000D01*
X74863258Y-35340000D01*
X74838872Y-35342402D01*
X74815423Y-35349515D01*
X74793812Y-35361066D01*
X74774870Y-35376612D01*
X74759324Y-35395554D01*
X74747773Y-35417165D01*
X74740660Y-35440614D01*
X74738258Y-35465000D01*
X74740660Y-35489386D01*
X74747773Y-35512835D01*
X74759324Y-35534446D01*
X74771893Y-35548314D01*
X74771708Y-35548466D01*
X74811314Y-35596725D01*
X74834934Y-35640915D01*
X74849483Y-35688878D01*
X74855000Y-35744891D01*
X74855000Y-36380373D01*
X74857402Y-36404759D01*
X74864515Y-36428208D01*
X74876066Y-36449819D01*
X74891612Y-36468761D01*
X74910554Y-36484307D01*
X74932165Y-36495858D01*
X74955614Y-36502971D01*
X74980000Y-36505373D01*
X75004386Y-36502971D01*
X75027835Y-36495858D01*
X75049446Y-36484307D01*
X75068388Y-36468761D01*
X75083934Y-36449819D01*
X75090240Y-36439297D01*
X75207408Y-36220090D01*
X75357366Y-36037366D01*
X75540090Y-35887408D01*
X75748553Y-35775983D01*
X75748556Y-35775982D01*
X75748558Y-35775981D01*
X75974759Y-35707363D01*
X76115792Y-35693473D01*
X76151049Y-35690000D01*
X76268951Y-35690000D01*
X76304208Y-35693473D01*
X76445241Y-35707363D01*
X76671442Y-35775981D01*
X76671444Y-35775982D01*
X76671447Y-35775983D01*
X76879910Y-35887408D01*
X77062634Y-36037366D01*
X77212592Y-36220090D01*
X77314760Y-36411234D01*
X77328374Y-36431609D01*
X77345701Y-36448936D01*
X77366075Y-36462550D01*
X77388714Y-36471927D01*
X77412748Y-36476708D01*
X77437252Y-36476708D01*
X77461285Y-36471928D01*
X77483924Y-36462550D01*
X77504299Y-36448936D01*
X77521626Y-36431609D01*
X77535240Y-36411235D01*
X77544617Y-36388596D01*
X77549398Y-36364562D01*
X77550000Y-36352310D01*
X77550000Y-35690000D01*
X79950000Y-35690000D01*
X79950000Y-38090000D01*
X77550000Y-38090000D01*
X77550000Y-37427690D01*
X77547598Y-37403304D01*
X77540485Y-37379855D01*
X77528934Y-37358244D01*
X77513388Y-37339302D01*
X77494446Y-37323756D01*
X77472835Y-37312205D01*
X77449386Y-37305092D01*
X77425000Y-37302690D01*
X77400614Y-37305092D01*
X77377165Y-37312205D01*
X77355554Y-37323756D01*
X77336612Y-37339302D01*
X77321066Y-37358244D01*
X77314760Y-37368766D01*
X77212592Y-37559910D01*
X77062634Y-37742634D01*
X76879910Y-37892592D01*
X76671447Y-38004017D01*
X76671444Y-38004018D01*
X76671442Y-38004019D01*
X76445241Y-38072637D01*
X76304208Y-38086527D01*
X76268951Y-38090000D01*
X76151049Y-38090000D01*
X76115792Y-38086527D01*
X75974759Y-38072637D01*
X75748558Y-38004019D01*
X75748556Y-38004018D01*
X75748553Y-38004017D01*
X75540090Y-37892592D01*
X75357366Y-37742634D01*
X75207408Y-37559910D01*
X75090240Y-37340703D01*
X75076626Y-37320328D01*
X75059299Y-37303001D01*
X75038925Y-37289387D01*
X75016286Y-37280009D01*
X74992252Y-37275229D01*
X74967748Y-37275229D01*
X74943715Y-37280009D01*
X74921076Y-37289387D01*
X74900701Y-37303001D01*
X74883374Y-37320328D01*
X74869760Y-37340702D01*
X74860382Y-37363341D01*
X74855602Y-37387375D01*
X74855000Y-37399627D01*
X74855000Y-38070109D01*
X74849483Y-38126122D01*
X74834934Y-38174085D01*
X74811314Y-38218275D01*
X74779518Y-38257018D01*
X74740775Y-38288814D01*
X74696585Y-38312434D01*
X74648622Y-38326983D01*
X74592609Y-38332500D01*
X73767391Y-38332500D01*
X73711378Y-38326983D01*
X73663415Y-38312434D01*
X73619225Y-38288814D01*
X73580482Y-38257018D01*
X73548686Y-38218275D01*
X73525066Y-38174085D01*
X73510517Y-38126122D01*
X73505000Y-38070109D01*
X73505000Y-37319891D01*
X73510517Y-37263878D01*
X73525066Y-37215915D01*
X73548686Y-37171725D01*
X73580482Y-37132982D01*
X73619225Y-37101186D01*
X73663415Y-37077566D01*
X73711378Y-37063017D01*
X73767391Y-37057500D01*
X74592609Y-37057500D01*
X74648622Y-37063017D01*
X74696585Y-37077566D01*
X74740775Y-37101186D01*
X74779518Y-37132982D01*
X74800617Y-37158691D01*
X74817945Y-37176018D01*
X74838320Y-37189632D01*
X74860959Y-37199009D01*
X74884992Y-37203789D01*
X74909496Y-37203789D01*
X74933530Y-37199008D01*
X74956169Y-37189631D01*
X74976543Y-37176017D01*
X74993870Y-37158689D01*
X75007484Y-37138314D01*
X75016861Y-37115675D01*
X75021641Y-37091642D01*
X75021641Y-37067144D01*
X75004194Y-36890000D01*
X75017723Y-36752635D01*
X75017723Y-36728131D01*
X75012943Y-36704097D01*
X75003565Y-36681458D01*
X74989951Y-36661084D01*
X74972624Y-36643757D01*
X74952250Y-36630143D01*
X74929611Y-36620765D01*
X74905577Y-36615985D01*
X74881073Y-36615985D01*
X74857039Y-36620765D01*
X74834400Y-36630143D01*
X74814026Y-36643757D01*
X74796699Y-36661083D01*
X74779518Y-36682018D01*
X74740775Y-36713814D01*
X74696585Y-36737434D01*
X74648622Y-36751983D01*
X74592609Y-36757500D01*
X73767391Y-36757500D01*
X73711378Y-36751983D01*
X73663415Y-36737434D01*
X73619225Y-36713814D01*
X73580482Y-36682018D01*
X73548686Y-36643275D01*
X73525066Y-36599085D01*
X73510517Y-36551122D01*
X73505000Y-36495109D01*
X73505000Y-35744891D01*
X73510517Y-35688878D01*
X73525066Y-35640915D01*
X73548686Y-35596725D01*
X73580482Y-35557982D01*
X73620661Y-35525008D01*
X73637988Y-35507681D01*
X73651601Y-35487306D01*
X73660979Y-35464667D01*
X73665759Y-35440634D01*
X73665759Y-35416129D01*
X73660978Y-35392096D01*
X73651601Y-35369457D01*
X73637987Y-35349082D01*
X73620660Y-35331755D01*
X73600286Y-35318142D01*
X73572557Y-35303320D01*
X73544613Y-35280387D01*
X73521678Y-35252441D01*
X73504642Y-35220568D01*
X73494148Y-35185974D01*
X73490000Y-35143859D01*
X73490000Y-34536141D01*
X73494148Y-34494026D01*
X73504642Y-34459432D01*
X73525787Y-34419872D01*
X73529757Y-34413931D01*
X73539136Y-34391292D01*
X73543917Y-34367259D01*
X73543919Y-34342755D01*
X73539140Y-34318721D01*
X73529763Y-34296082D01*
X73525795Y-34290142D01*
X73504642Y-34250568D01*
X73494148Y-34215974D01*
X73490000Y-34173859D01*
X73490000Y-33566141D01*
X73494148Y-33524026D01*
X73504642Y-33489432D01*
X73521680Y-33457555D01*
X73540060Y-33435160D01*
X73553674Y-33414786D01*
X73563052Y-33392147D01*
X73567833Y-33368114D01*
X73567833Y-33343609D01*
X73563053Y-33319576D01*
X73553676Y-33296937D01*
X73540058Y-33276557D01*
X73536679Y-33272441D01*
X73519643Y-33240567D01*
X73509149Y-33205973D01*
X73505001Y-33163858D01*
X73505001Y-32556140D01*
X73509149Y-32514025D01*
X73519643Y-32479431D01*
X73540788Y-32439871D01*
X73544758Y-32433930D01*
X73554137Y-32411291D01*
X73558918Y-32387258D01*
X73558920Y-32362754D01*
X73554141Y-32338720D01*
X73544764Y-32316081D01*
X73540796Y-32310141D01*
X73519643Y-32270567D01*
X73509149Y-32235973D01*
X73505001Y-32193858D01*
X73505001Y-31586140D01*
X73509149Y-31544025D01*
X73519643Y-31509431D01*
X73536679Y-31477558D01*
X73559614Y-31449612D01*
X73587560Y-31426677D01*
X73619433Y-31409641D01*
X73654027Y-31399147D01*
X73696142Y-31394999D01*
X74353860Y-31394999D01*
X74395975Y-31399147D01*
X74395975Y-31399147D01*
G37*
G36*
X70730000Y-37770000D02*
X68830000Y-37770000D01*
X68830000Y-35370000D01*
X70730000Y-35370000D01*
X70730000Y-37770000D01*
X70730000Y-37770000D01*
G37*
G36*
X73030000Y-37770000D02*
X71130000Y-37770000D01*
X71130000Y-35370000D01*
X73030000Y-35370000D01*
X73030000Y-37770000D01*
X73030000Y-37770000D01*
G37*
G36*
X68430000Y-37770000D02*
X66530000Y-37770000D01*
X66530000Y-35370000D01*
X68430000Y-35370000D01*
X68430000Y-37770000D01*
X68430000Y-37770000D01*
G37*
G36*
X91159516Y-31272946D02*
X91201910Y-31285806D01*
X91240974Y-31306686D01*
X91275214Y-31334786D01*
X91303314Y-31369026D01*
X91324194Y-31408090D01*
X91337054Y-31450484D01*
X91342000Y-31500702D01*
X91342000Y-34435298D01*
X91337054Y-34485516D01*
X91324194Y-34527910D01*
X91303314Y-34566974D01*
X91275214Y-34601214D01*
X91240974Y-34629314D01*
X91201910Y-34650194D01*
X91159516Y-34663054D01*
X91109298Y-34668000D01*
X89574702Y-34668000D01*
X89524484Y-34663054D01*
X89482090Y-34650194D01*
X89443026Y-34629314D01*
X89408786Y-34601214D01*
X89380686Y-34566974D01*
X89359806Y-34527910D01*
X89346946Y-34485516D01*
X89342000Y-34435298D01*
X89342000Y-31500702D01*
X89346946Y-31450484D01*
X89359806Y-31408090D01*
X89380686Y-31369026D01*
X89408786Y-31334786D01*
X89443026Y-31306686D01*
X89482090Y-31285806D01*
X89524484Y-31272946D01*
X89574702Y-31268000D01*
X91109298Y-31268000D01*
X91159516Y-31272946D01*
X91159516Y-31272946D01*
G37*
G36*
X83300000Y-32365000D02*
X81780000Y-32365000D01*
X81780000Y-29805000D01*
X83300000Y-29805000D01*
X83300000Y-32365000D01*
X83300000Y-32365000D01*
G37*
G36*
X85870000Y-32307000D02*
X84350000Y-32307000D01*
X84350000Y-29747000D01*
X85870000Y-29747000D01*
X85870000Y-32307000D01*
X85870000Y-32307000D01*
G37*
G36*
X71880000Y-31470000D02*
X67680000Y-31470000D01*
X67680000Y-29070000D01*
X71880000Y-29070000D01*
X71880000Y-31470000D01*
X71880000Y-31470000D01*
G37*
M02*
