G04 #@! TF.GenerationSoftware,KiCad,Pcbnew,5.0.2-bee76a0~70~ubuntu18.04.1*
G04 #@! TF.CreationDate,2019-01-08T18:58:55+02:00*
G04 #@! TF.ProjectId,HScope_2018_10_L,4853636f-7065-45f3-9230-31385f31305f,rev?*
G04 #@! TF.SameCoordinates,Original*
G04 #@! TF.FileFunction,Copper,L2,Bot*
G04 #@! TF.FilePolarity,Positive*
%FSLAX46Y46*%
G04 Gerber Fmt 4.6, Leading zero omitted, Abs format (unit mm)*
G04 Created by KiCad (PCBNEW 5.0.2-bee76a0~70~ubuntu18.04.1) date Вт 08 янв 2019 18:58:55*
%MOMM*%
%LPD*%
G01*
G04 APERTURE LIST*
G04 #@! TA.AperFunction,ComponentPad*
%ADD10O,2.000000X2.000000*%
G04 #@! TD*
G04 #@! TA.AperFunction,ComponentPad*
%ADD11R,2.000000X2.000000*%
G04 #@! TD*
G04 #@! TA.AperFunction,ComponentPad*
%ADD12R,1.700000X1.700000*%
G04 #@! TD*
G04 #@! TA.AperFunction,ComponentPad*
%ADD13O,1.700000X1.700000*%
G04 #@! TD*
G04 #@! TA.AperFunction,ComponentPad*
%ADD14C,2.250000*%
G04 #@! TD*
G04 #@! TA.AperFunction,ComponentPad*
%ADD15C,2.050000*%
G04 #@! TD*
G04 #@! TA.AperFunction,ViaPad*
%ADD16C,0.500000*%
G04 #@! TD*
G04 #@! TA.AperFunction,Conductor*
%ADD17C,0.100000*%
G04 #@! TD*
G04 #@! TA.AperFunction,Conductor*
%ADD18C,2.500000*%
G04 #@! TD*
G04 #@! TA.AperFunction,ComponentPad*
%ADD19C,1.500000*%
G04 #@! TD*
G04 #@! TA.AperFunction,ViaPad*
%ADD20C,0.800000*%
G04 #@! TD*
G04 #@! TA.AperFunction,ViaPad*
%ADD21C,5.000000*%
G04 #@! TD*
G04 #@! TA.AperFunction,Conductor*
%ADD22C,2.000000*%
G04 #@! TD*
G04 #@! TA.AperFunction,Conductor*
%ADD23C,0.500000*%
G04 #@! TD*
G04 #@! TA.AperFunction,Conductor*
%ADD24C,0.300000*%
G04 #@! TD*
G04 #@! TA.AperFunction,Conductor*
%ADD25C,1.000000*%
G04 #@! TD*
G04 #@! TA.AperFunction,Conductor*
%ADD26C,0.254000*%
G04 #@! TD*
G04 APERTURE END LIST*
D10*
G04 #@! TO.P,D1,2*
G04 #@! TO.N,Net-(D1-Pad2)*
X76210000Y-36890000D03*
D11*
G04 #@! TO.P,D1,1*
G04 #@! TO.N,GNDREF*
X78750000Y-36890000D03*
G04 #@! TD*
D12*
G04 #@! TO.P,J1,1*
G04 #@! TO.N,GNDREF*
X92620000Y-53420000D03*
D13*
G04 #@! TO.P,J1,2*
G04 #@! TO.N,Net-(J1-Pad2)*
X92620000Y-55960000D03*
G04 #@! TO.P,J1,3*
G04 #@! TO.N,Net-(J1-Pad3)*
X92620000Y-58500000D03*
G04 #@! TO.P,J1,4*
G04 #@! TO.N,V_IN*
X92620000Y-61040000D03*
G04 #@! TD*
D14*
G04 #@! TO.P,J3,2*
G04 #@! TO.N,GNDREF*
X82130000Y-71020000D03*
X82130000Y-65940000D03*
X87210000Y-65940000D03*
X87210000Y-71020000D03*
D15*
G04 #@! TO.P,J3,1*
G04 #@! TO.N,IN_U_1*
X84670000Y-68480000D03*
G04 #@! TD*
D13*
G04 #@! TO.P,J4,4*
G04 #@! TO.N,V_IN*
X92620000Y-42150000D03*
G04 #@! TO.P,J4,3*
G04 #@! TO.N,RX*
X92620000Y-44690000D03*
G04 #@! TO.P,J4,2*
G04 #@! TO.N,TX*
X92620000Y-47230000D03*
D12*
G04 #@! TO.P,J4,1*
G04 #@! TO.N,GNDREF*
X92620000Y-49770000D03*
G04 #@! TD*
D15*
G04 #@! TO.P,J7,1*
G04 #@! TO.N,IN_U_0*
X76260000Y-68490000D03*
D14*
G04 #@! TO.P,J7,2*
G04 #@! TO.N,GNDREF*
X78800000Y-71030000D03*
X78800000Y-65950000D03*
X73720000Y-65950000D03*
X73720000Y-71030000D03*
G04 #@! TD*
D16*
G04 #@! TO.N,GNDREF*
G04 #@! TO.C,U2*
X82900000Y-47900000D03*
X83900000Y-47900000D03*
X84900000Y-47900000D03*
X82900000Y-48900000D03*
X83900000Y-48900000D03*
X84900000Y-48900000D03*
X82900000Y-49900000D03*
X83900000Y-49900000D03*
X84900000Y-49900000D03*
D17*
G36*
X84924504Y-47651204D02*
X84948773Y-47654804D01*
X84972571Y-47660765D01*
X84995671Y-47669030D01*
X85017849Y-47679520D01*
X85038893Y-47692133D01*
X85058598Y-47706747D01*
X85076777Y-47723223D01*
X85093253Y-47741402D01*
X85107867Y-47761107D01*
X85120480Y-47782151D01*
X85130970Y-47804329D01*
X85139235Y-47827429D01*
X85145196Y-47851227D01*
X85148796Y-47875496D01*
X85150000Y-47900000D01*
X85150000Y-49900000D01*
X85148796Y-49924504D01*
X85145196Y-49948773D01*
X85139235Y-49972571D01*
X85130970Y-49995671D01*
X85120480Y-50017849D01*
X85107867Y-50038893D01*
X85093253Y-50058598D01*
X85076777Y-50076777D01*
X85058598Y-50093253D01*
X85038893Y-50107867D01*
X85017849Y-50120480D01*
X84995671Y-50130970D01*
X84972571Y-50139235D01*
X84948773Y-50145196D01*
X84924504Y-50148796D01*
X84900000Y-50150000D01*
X82900000Y-50150000D01*
X82875496Y-50148796D01*
X82851227Y-50145196D01*
X82827429Y-50139235D01*
X82804329Y-50130970D01*
X82782151Y-50120480D01*
X82761107Y-50107867D01*
X82741402Y-50093253D01*
X82723223Y-50076777D01*
X82706747Y-50058598D01*
X82692133Y-50038893D01*
X82679520Y-50017849D01*
X82669030Y-49995671D01*
X82660765Y-49972571D01*
X82654804Y-49948773D01*
X82651204Y-49924504D01*
X82650000Y-49900000D01*
X82650000Y-47900000D01*
X82651204Y-47875496D01*
X82654804Y-47851227D01*
X82660765Y-47827429D01*
X82669030Y-47804329D01*
X82679520Y-47782151D01*
X82692133Y-47761107D01*
X82706747Y-47741402D01*
X82723223Y-47723223D01*
X82741402Y-47706747D01*
X82761107Y-47692133D01*
X82782151Y-47679520D01*
X82804329Y-47669030D01*
X82827429Y-47660765D01*
X82851227Y-47654804D01*
X82875496Y-47651204D01*
X82900000Y-47650000D01*
X84900000Y-47650000D01*
X84924504Y-47651204D01*
X84924504Y-47651204D01*
G37*
D18*
X83900000Y-48900000D03*
G04 #@! TD*
D19*
G04 #@! TO.P,Y2,1*
G04 #@! TO.N,OC_2_IN*
X67110000Y-52490000D03*
G04 #@! TO.P,Y2,2*
G04 #@! TO.N,OC_2_OUT*
X71990000Y-52490000D03*
G04 #@! TD*
D20*
G04 #@! TO.N,GNDREF*
X66420000Y-60858000D03*
D21*
X66420000Y-65340000D03*
D20*
X92710000Y-70530000D03*
X94590000Y-70530000D03*
X94370000Y-68570000D03*
X66360000Y-70510000D03*
X68230000Y-70500000D03*
X66625000Y-68530000D03*
X76160000Y-65950000D03*
X78800000Y-68300000D03*
X76360000Y-71030000D03*
X84830000Y-65940000D03*
X82130000Y-68390000D03*
X84620000Y-71020000D03*
X75395000Y-46460000D03*
X75395000Y-47500000D03*
X80257133Y-52421498D03*
X87522182Y-45217818D03*
X75670000Y-60430000D03*
X77850000Y-59150000D03*
X89580000Y-43500000D03*
D21*
X94122000Y-65286000D03*
X95634000Y-37962000D03*
D20*
X66474000Y-58752000D03*
X68472000Y-58752000D03*
X68472000Y-60912000D03*
X86616000Y-57564000D03*
X84564000Y-59670000D03*
X86616000Y-59724000D03*
X84618000Y-57564000D03*
X69822000Y-43578000D03*
X67770000Y-45684000D03*
X69822000Y-45738000D03*
X67824000Y-43578000D03*
G04 #@! TO.N,V_IN*
X67446000Y-36570000D03*
X65710000Y-36590000D03*
X64000000Y-38040000D03*
X64460000Y-40400000D03*
X90342000Y-37368000D03*
X90558000Y-40088000D03*
G04 #@! TO.N,VCC*
X80580000Y-43380000D03*
X89990000Y-46130000D03*
X77470000Y-50100000D03*
X87650000Y-53710000D03*
X74850000Y-50060000D03*
G04 #@! TO.N,RX*
X89860000Y-52370000D03*
G04 #@! TO.N,TX*
X88850000Y-52590000D03*
G04 #@! TD*
D22*
G04 #@! TO.N,GNDREF*
X94100000Y-71020000D02*
X94590000Y-70530000D01*
X87210000Y-71020000D02*
X94100000Y-71020000D01*
X66880000Y-71030000D02*
X66360000Y-70510000D01*
X73720000Y-71030000D02*
X66880000Y-71030000D01*
D23*
X83900000Y-48900000D02*
X84900000Y-49900000D01*
X83900000Y-48900000D02*
X83900000Y-49900000D01*
X83900000Y-48900000D02*
X82900000Y-49900000D01*
X83900000Y-48900000D02*
X82900000Y-47900000D01*
X83900000Y-48900000D02*
X84900000Y-47900000D01*
X83900000Y-48900000D02*
X84900000Y-48900000D01*
D22*
X83900000Y-50800000D02*
X83900000Y-48900000D01*
X91178002Y-53420000D02*
X90408001Y-54190001D01*
X92620000Y-53420000D02*
X91178002Y-53420000D01*
D24*
X89510001Y-54190001D02*
X89270001Y-54430001D01*
X90408001Y-54190001D02*
X89510001Y-54190001D01*
X83900000Y-48900000D02*
X80378502Y-52421498D01*
X80378502Y-52421498D02*
X80257133Y-52421498D01*
X83900000Y-48900000D02*
X87522182Y-45277818D01*
X87522182Y-45277818D02*
X87522182Y-45217818D01*
X83900000Y-51162095D02*
X83900000Y-50800000D01*
X87297915Y-54560010D02*
X83900000Y-51162095D01*
X88002085Y-54560010D02*
X87297915Y-54560010D01*
X88132094Y-54430001D02*
X88002085Y-54560010D01*
X89270001Y-54430001D02*
X88132094Y-54430001D01*
D25*
X76950000Y-59150000D02*
X75670000Y-60430000D01*
X77850000Y-59150000D02*
X76950000Y-59150000D01*
X75670000Y-65460000D02*
X76160000Y-65950000D01*
X75670000Y-60430000D02*
X75670000Y-65460000D01*
X75395000Y-47500000D02*
X75395000Y-46115000D01*
X75395000Y-46115000D02*
X80460000Y-41050000D01*
X80460000Y-41050000D02*
X87200000Y-41050000D01*
X87200000Y-41050000D02*
X89580000Y-43430000D01*
X89580000Y-43430000D02*
X89580000Y-43500000D01*
X88334999Y-64815001D02*
X88334999Y-56263003D01*
X88334999Y-56263003D02*
X90408001Y-54190001D01*
X87210000Y-65940000D02*
X88334999Y-64815001D01*
X80460000Y-40600000D02*
X80460000Y-41050000D01*
X78750000Y-38890000D02*
X80460000Y-40600000D01*
X78750000Y-36890000D02*
X78750000Y-38890000D01*
X87916997Y-56263003D02*
X86616000Y-57564000D01*
X88334999Y-56263003D02*
X87916997Y-56263003D01*
D22*
G04 #@! TO.N,V_IN*
X64460000Y-40400000D02*
X64460000Y-37946000D01*
X65836000Y-36570000D02*
X68190000Y-36570000D01*
X64460000Y-37946000D02*
X65836000Y-36570000D01*
X68190000Y-36570000D02*
X71334000Y-33426000D01*
X71334000Y-33426000D02*
X86940000Y-33426000D01*
X86940000Y-33426000D02*
X90558000Y-37044000D01*
X90558000Y-40088000D02*
X92620000Y-42150000D01*
X90558000Y-37044000D02*
X90558000Y-40088000D01*
D25*
G04 #@! TO.N,VCC*
X77910000Y-46050000D02*
X80580000Y-43380000D01*
X77910000Y-49710000D02*
X77910000Y-46050000D01*
X86840001Y-42980001D02*
X89590001Y-45730001D01*
X80979999Y-42980001D02*
X86840001Y-42980001D01*
X89590001Y-45730001D02*
X89990000Y-46130000D01*
X80580000Y-43380000D02*
X80979999Y-42980001D01*
D24*
X77869999Y-49700001D02*
X77900001Y-49700001D01*
X77900001Y-49700001D02*
X77910000Y-49710000D01*
D25*
X77869999Y-49700001D02*
X77470000Y-50100000D01*
X87650000Y-51617905D02*
X87650000Y-53710000D01*
X74890000Y-50100000D02*
X74850000Y-50060000D01*
X77470000Y-50100000D02*
X74890000Y-50100000D01*
X89990000Y-46695685D02*
X89964000Y-46721685D01*
X89990000Y-46130000D02*
X89990000Y-46695685D01*
X89964000Y-46721685D02*
X89964000Y-47952000D01*
X89964000Y-47952000D02*
X88290000Y-49626000D01*
X88290000Y-50977905D02*
X87650000Y-51617905D01*
X88290000Y-49626000D02*
X88290000Y-50977905D01*
D24*
G04 #@! TO.N,RX*
X93820001Y-45890001D02*
X93469999Y-45539999D01*
X93820001Y-47806001D02*
X93820001Y-45890001D01*
X93469999Y-45539999D02*
X92620000Y-44690000D01*
X93196001Y-48430001D02*
X93820001Y-47806001D01*
X91629997Y-48430001D02*
X93196001Y-48430001D01*
X89860000Y-50199998D02*
X91629997Y-48430001D01*
X89860000Y-52370000D02*
X89860000Y-50199998D01*
G04 #@! TO.N,TX*
X91417919Y-47230000D02*
X92620000Y-47230000D01*
X91037919Y-47610000D02*
X91417919Y-47230000D01*
X91037919Y-48262081D02*
X91037919Y-47610000D01*
X88850000Y-52590000D02*
X88850000Y-51620000D01*
X88850000Y-51620000D02*
X88860000Y-51620000D01*
X88860000Y-51620000D02*
X89359990Y-51120010D01*
X90850000Y-48450000D02*
X91037919Y-48262081D01*
X89359990Y-51120010D02*
X89359990Y-49970010D01*
X89359990Y-49970010D02*
X90850000Y-48480000D01*
X90850000Y-48480000D02*
X90850000Y-48450000D01*
G04 #@! TD*
D26*
G04 #@! TO.N,GNDREF*
G36*
X98218001Y-36308086D02*
X98218000Y-70931908D01*
X95015910Y-74134000D01*
X91338091Y-74134000D01*
X89435494Y-72231404D01*
X89395881Y-72172119D01*
X89161028Y-72015195D01*
X88953926Y-71974000D01*
X88953924Y-71974000D01*
X88884000Y-71960091D01*
X88814076Y-71974000D01*
X72051926Y-71974000D01*
X71982000Y-71960091D01*
X71704971Y-72015195D01*
X71529399Y-72132509D01*
X71470119Y-72172119D01*
X71430510Y-72231398D01*
X69473910Y-74188000D01*
X65796092Y-74188000D01*
X62378000Y-70769910D01*
X62378000Y-68159806D01*
X74600000Y-68159806D01*
X74600000Y-68820194D01*
X74852720Y-69430314D01*
X75319686Y-69897280D01*
X75929806Y-70150000D01*
X76590194Y-70150000D01*
X77200314Y-69897280D01*
X77667280Y-69430314D01*
X77920000Y-68820194D01*
X77920000Y-68159806D01*
X77915858Y-68149806D01*
X83010000Y-68149806D01*
X83010000Y-68810194D01*
X83262720Y-69420314D01*
X83729686Y-69887280D01*
X84339806Y-70140000D01*
X85000194Y-70140000D01*
X85610314Y-69887280D01*
X86077280Y-69420314D01*
X86330000Y-68810194D01*
X86330000Y-68149806D01*
X86077280Y-67539686D01*
X85610314Y-67072720D01*
X85000194Y-66820000D01*
X84339806Y-66820000D01*
X83729686Y-67072720D01*
X83262720Y-67539686D01*
X83010000Y-68149806D01*
X77915858Y-68149806D01*
X77667280Y-67549686D01*
X77200314Y-67082720D01*
X76590194Y-66830000D01*
X75929806Y-66830000D01*
X75319686Y-67082720D01*
X74852720Y-67549686D01*
X74600000Y-68159806D01*
X62378000Y-68159806D01*
X62378000Y-55960000D01*
X91105908Y-55960000D01*
X91221161Y-56539418D01*
X91549375Y-57030625D01*
X91847761Y-57230000D01*
X91549375Y-57429375D01*
X91221161Y-57920582D01*
X91105908Y-58500000D01*
X91221161Y-59079418D01*
X91549375Y-59570625D01*
X91847761Y-59770000D01*
X91549375Y-59969375D01*
X91221161Y-60460582D01*
X91105908Y-61040000D01*
X91221161Y-61619418D01*
X91549375Y-62110625D01*
X92040582Y-62438839D01*
X92473744Y-62525000D01*
X92766256Y-62525000D01*
X93199418Y-62438839D01*
X93690625Y-62110625D01*
X94018839Y-61619418D01*
X94134092Y-61040000D01*
X94018839Y-60460582D01*
X93690625Y-59969375D01*
X93392239Y-59770000D01*
X93690625Y-59570625D01*
X94018839Y-59079418D01*
X94134092Y-58500000D01*
X94018839Y-57920582D01*
X93690625Y-57429375D01*
X93392239Y-57230000D01*
X93690625Y-57030625D01*
X94018839Y-56539418D01*
X94134092Y-55960000D01*
X94018839Y-55380582D01*
X93690625Y-54889375D01*
X93199418Y-54561161D01*
X92766256Y-54475000D01*
X92473744Y-54475000D01*
X92040582Y-54561161D01*
X91549375Y-54889375D01*
X91221161Y-55380582D01*
X91105908Y-55960000D01*
X62378000Y-55960000D01*
X62378000Y-52214506D01*
X65725000Y-52214506D01*
X65725000Y-52765494D01*
X65935853Y-53274540D01*
X66325460Y-53664147D01*
X66834506Y-53875000D01*
X67385494Y-53875000D01*
X67894540Y-53664147D01*
X68284147Y-53274540D01*
X68495000Y-52765494D01*
X68495000Y-52214506D01*
X70605000Y-52214506D01*
X70605000Y-52765494D01*
X70815853Y-53274540D01*
X71205460Y-53664147D01*
X71714506Y-53875000D01*
X72265494Y-53875000D01*
X72774540Y-53664147D01*
X73164147Y-53274540D01*
X73375000Y-52765494D01*
X73375000Y-52214506D01*
X73164147Y-51705460D01*
X72774540Y-51315853D01*
X72265494Y-51105000D01*
X71714506Y-51105000D01*
X71205460Y-51315853D01*
X70815853Y-51705460D01*
X70605000Y-52214506D01*
X68495000Y-52214506D01*
X68284147Y-51705460D01*
X67894540Y-51315853D01*
X67385494Y-51105000D01*
X66834506Y-51105000D01*
X66325460Y-51315853D01*
X65935853Y-51705460D01*
X65725000Y-52214506D01*
X62378000Y-52214506D01*
X62378000Y-37946000D01*
X62792969Y-37946000D01*
X62825001Y-38107034D01*
X62825000Y-40561030D01*
X62919864Y-41037944D01*
X63281231Y-41578769D01*
X63822055Y-41940136D01*
X64460000Y-42067031D01*
X65097944Y-41940136D01*
X65638769Y-41578769D01*
X66000136Y-41037945D01*
X66095000Y-40561031D01*
X66095000Y-38623238D01*
X66513239Y-38205000D01*
X68028970Y-38205000D01*
X68190000Y-38237031D01*
X68351030Y-38205000D01*
X68351031Y-38205000D01*
X68827945Y-38110136D01*
X69368769Y-37748769D01*
X69459988Y-37612250D01*
X70182238Y-36890000D01*
X74542969Y-36890000D01*
X74669864Y-37527945D01*
X75031231Y-38068769D01*
X75572055Y-38430136D01*
X76048969Y-38525000D01*
X76371031Y-38525000D01*
X76847945Y-38430136D01*
X77388769Y-38068769D01*
X77750136Y-37527945D01*
X77877031Y-36890000D01*
X77750136Y-36252055D01*
X77388769Y-35711231D01*
X76847945Y-35349864D01*
X76371031Y-35255000D01*
X76048969Y-35255000D01*
X75572055Y-35349864D01*
X75031231Y-35711231D01*
X74669864Y-36252055D01*
X74542969Y-36890000D01*
X70182238Y-36890000D01*
X72011239Y-35061000D01*
X86262762Y-35061000D01*
X88923000Y-37721239D01*
X88923001Y-39926966D01*
X88890969Y-40088000D01*
X88993981Y-40605874D01*
X89017865Y-40725945D01*
X89379232Y-41266769D01*
X89515748Y-41357986D01*
X91577746Y-43419985D01*
X91712765Y-43510202D01*
X91549375Y-43619375D01*
X91221161Y-44110582D01*
X91105908Y-44690000D01*
X91221161Y-45269418D01*
X91549375Y-45760625D01*
X91847761Y-45960000D01*
X91549375Y-46159375D01*
X91361273Y-46440889D01*
X91340607Y-46445000D01*
X91340603Y-46445000D01*
X91125000Y-46487886D01*
X91125000Y-46241782D01*
X91147235Y-46129999D01*
X91070654Y-45745000D01*
X91059146Y-45687145D01*
X90808289Y-45311711D01*
X90713519Y-45248388D01*
X90471611Y-45006480D01*
X90471609Y-45006477D01*
X87721614Y-42256483D01*
X87658290Y-42161712D01*
X87282856Y-41910855D01*
X86951784Y-41845001D01*
X86840001Y-41822766D01*
X86728218Y-41845001D01*
X81091781Y-41845001D01*
X80979998Y-41822766D01*
X80719479Y-41874586D01*
X80537144Y-41910855D01*
X80161710Y-42161712D01*
X80098386Y-42256483D01*
X79856479Y-42498390D01*
X79856476Y-42498392D01*
X77186480Y-45168389D01*
X77091712Y-45231711D01*
X76986218Y-45389594D01*
X76840854Y-45607146D01*
X76752765Y-46050000D01*
X76775001Y-46161788D01*
X76775000Y-48965000D01*
X75162877Y-48965000D01*
X74850000Y-48902765D01*
X74407146Y-48990854D01*
X74031712Y-49241712D01*
X73780854Y-49617146D01*
X73692765Y-50060000D01*
X73780854Y-50502854D01*
X73968392Y-50783523D01*
X74008388Y-50823519D01*
X74071711Y-50918289D01*
X74447145Y-51169146D01*
X74778217Y-51235000D01*
X74890000Y-51257235D01*
X75001783Y-51235000D01*
X77358217Y-51235000D01*
X77470000Y-51257235D01*
X77581783Y-51235000D01*
X77912855Y-51169146D01*
X78288289Y-50918289D01*
X78351613Y-50823518D01*
X78482836Y-50692295D01*
X78728289Y-50528289D01*
X78979146Y-50152855D01*
X79045000Y-49821783D01*
X79045000Y-46520131D01*
X81450131Y-44115001D01*
X86369870Y-44115001D01*
X88834935Y-46580067D01*
X88806765Y-46721685D01*
X88829000Y-46833468D01*
X88829000Y-47481867D01*
X87566481Y-48744387D01*
X87471711Y-48807711D01*
X87282924Y-49090252D01*
X87220854Y-49183146D01*
X87132765Y-49626000D01*
X87155000Y-49737783D01*
X87155000Y-50507774D01*
X86926482Y-50736292D01*
X86831711Y-50799616D01*
X86617631Y-51120010D01*
X86580854Y-51175051D01*
X86492765Y-51617905D01*
X86515000Y-51729689D01*
X86515001Y-53821783D01*
X86580855Y-54152855D01*
X86831712Y-54528289D01*
X87207146Y-54779146D01*
X87650000Y-54867235D01*
X88092855Y-54779146D01*
X88468289Y-54528289D01*
X88719146Y-54152855D01*
X88785000Y-53821783D01*
X88785000Y-53625000D01*
X89055874Y-53625000D01*
X89436280Y-53467431D01*
X89544231Y-53359480D01*
X89654126Y-53405000D01*
X90065874Y-53405000D01*
X90446280Y-53247431D01*
X90737431Y-52956280D01*
X90895000Y-52575874D01*
X90895000Y-52164126D01*
X90737431Y-51783720D01*
X90645000Y-51691289D01*
X90645000Y-50525155D01*
X91955154Y-49215001D01*
X93118689Y-49215001D01*
X93196001Y-49230379D01*
X93273313Y-49215001D01*
X93273317Y-49215001D01*
X93502293Y-49169455D01*
X93761954Y-48995954D01*
X93805750Y-48930409D01*
X94320412Y-48415748D01*
X94385954Y-48371954D01*
X94429748Y-48306412D01*
X94429750Y-48306410D01*
X94516918Y-48175953D01*
X94559455Y-48112293D01*
X94605001Y-47883317D01*
X94605001Y-47883313D01*
X94620379Y-47806002D01*
X94605001Y-47728691D01*
X94605001Y-45967313D01*
X94620379Y-45890001D01*
X94605001Y-45812689D01*
X94605001Y-45812685D01*
X94559455Y-45583709D01*
X94385954Y-45324048D01*
X94320407Y-45280250D01*
X94079750Y-45039594D01*
X94079748Y-45039590D01*
X94067075Y-45026917D01*
X94134092Y-44690000D01*
X94018839Y-44110582D01*
X93690625Y-43619375D01*
X93527235Y-43510201D01*
X93798768Y-43328768D01*
X94160135Y-42787945D01*
X94287030Y-42149999D01*
X94160135Y-41512054D01*
X93889985Y-41107746D01*
X92193000Y-39410762D01*
X92193000Y-37205031D01*
X92225031Y-37044000D01*
X92098136Y-36406054D01*
X91864286Y-36056074D01*
X91736769Y-35865231D01*
X91600253Y-35774014D01*
X88209988Y-32383750D01*
X88118769Y-32247231D01*
X87577945Y-31885864D01*
X87101031Y-31791000D01*
X87101030Y-31791000D01*
X86940000Y-31758969D01*
X86778970Y-31791000D01*
X71495025Y-31791000D01*
X71333999Y-31758970D01*
X71172973Y-31791000D01*
X71172969Y-31791000D01*
X70696055Y-31885864D01*
X70155231Y-32247231D01*
X70064014Y-32383747D01*
X67512762Y-34935000D01*
X65997030Y-34935000D01*
X65836000Y-34902969D01*
X65674970Y-34935000D01*
X65674969Y-34935000D01*
X65198055Y-35029864D01*
X64657231Y-35391231D01*
X64566014Y-35527747D01*
X63417748Y-36676014D01*
X63281232Y-36767231D01*
X63190015Y-36903747D01*
X62919865Y-37308055D01*
X62792969Y-37946000D01*
X62378000Y-37946000D01*
X62378000Y-36306178D01*
X66572580Y-28574000D01*
X93971837Y-28574000D01*
X98218001Y-36308086D01*
X98218001Y-36308086D01*
G37*
X98218001Y-36308086D02*
X98218000Y-70931908D01*
X95015910Y-74134000D01*
X91338091Y-74134000D01*
X89435494Y-72231404D01*
X89395881Y-72172119D01*
X89161028Y-72015195D01*
X88953926Y-71974000D01*
X88953924Y-71974000D01*
X88884000Y-71960091D01*
X88814076Y-71974000D01*
X72051926Y-71974000D01*
X71982000Y-71960091D01*
X71704971Y-72015195D01*
X71529399Y-72132509D01*
X71470119Y-72172119D01*
X71430510Y-72231398D01*
X69473910Y-74188000D01*
X65796092Y-74188000D01*
X62378000Y-70769910D01*
X62378000Y-68159806D01*
X74600000Y-68159806D01*
X74600000Y-68820194D01*
X74852720Y-69430314D01*
X75319686Y-69897280D01*
X75929806Y-70150000D01*
X76590194Y-70150000D01*
X77200314Y-69897280D01*
X77667280Y-69430314D01*
X77920000Y-68820194D01*
X77920000Y-68159806D01*
X77915858Y-68149806D01*
X83010000Y-68149806D01*
X83010000Y-68810194D01*
X83262720Y-69420314D01*
X83729686Y-69887280D01*
X84339806Y-70140000D01*
X85000194Y-70140000D01*
X85610314Y-69887280D01*
X86077280Y-69420314D01*
X86330000Y-68810194D01*
X86330000Y-68149806D01*
X86077280Y-67539686D01*
X85610314Y-67072720D01*
X85000194Y-66820000D01*
X84339806Y-66820000D01*
X83729686Y-67072720D01*
X83262720Y-67539686D01*
X83010000Y-68149806D01*
X77915858Y-68149806D01*
X77667280Y-67549686D01*
X77200314Y-67082720D01*
X76590194Y-66830000D01*
X75929806Y-66830000D01*
X75319686Y-67082720D01*
X74852720Y-67549686D01*
X74600000Y-68159806D01*
X62378000Y-68159806D01*
X62378000Y-55960000D01*
X91105908Y-55960000D01*
X91221161Y-56539418D01*
X91549375Y-57030625D01*
X91847761Y-57230000D01*
X91549375Y-57429375D01*
X91221161Y-57920582D01*
X91105908Y-58500000D01*
X91221161Y-59079418D01*
X91549375Y-59570625D01*
X91847761Y-59770000D01*
X91549375Y-59969375D01*
X91221161Y-60460582D01*
X91105908Y-61040000D01*
X91221161Y-61619418D01*
X91549375Y-62110625D01*
X92040582Y-62438839D01*
X92473744Y-62525000D01*
X92766256Y-62525000D01*
X93199418Y-62438839D01*
X93690625Y-62110625D01*
X94018839Y-61619418D01*
X94134092Y-61040000D01*
X94018839Y-60460582D01*
X93690625Y-59969375D01*
X93392239Y-59770000D01*
X93690625Y-59570625D01*
X94018839Y-59079418D01*
X94134092Y-58500000D01*
X94018839Y-57920582D01*
X93690625Y-57429375D01*
X93392239Y-57230000D01*
X93690625Y-57030625D01*
X94018839Y-56539418D01*
X94134092Y-55960000D01*
X94018839Y-55380582D01*
X93690625Y-54889375D01*
X93199418Y-54561161D01*
X92766256Y-54475000D01*
X92473744Y-54475000D01*
X92040582Y-54561161D01*
X91549375Y-54889375D01*
X91221161Y-55380582D01*
X91105908Y-55960000D01*
X62378000Y-55960000D01*
X62378000Y-52214506D01*
X65725000Y-52214506D01*
X65725000Y-52765494D01*
X65935853Y-53274540D01*
X66325460Y-53664147D01*
X66834506Y-53875000D01*
X67385494Y-53875000D01*
X67894540Y-53664147D01*
X68284147Y-53274540D01*
X68495000Y-52765494D01*
X68495000Y-52214506D01*
X70605000Y-52214506D01*
X70605000Y-52765494D01*
X70815853Y-53274540D01*
X71205460Y-53664147D01*
X71714506Y-53875000D01*
X72265494Y-53875000D01*
X72774540Y-53664147D01*
X73164147Y-53274540D01*
X73375000Y-52765494D01*
X73375000Y-52214506D01*
X73164147Y-51705460D01*
X72774540Y-51315853D01*
X72265494Y-51105000D01*
X71714506Y-51105000D01*
X71205460Y-51315853D01*
X70815853Y-51705460D01*
X70605000Y-52214506D01*
X68495000Y-52214506D01*
X68284147Y-51705460D01*
X67894540Y-51315853D01*
X67385494Y-51105000D01*
X66834506Y-51105000D01*
X66325460Y-51315853D01*
X65935853Y-51705460D01*
X65725000Y-52214506D01*
X62378000Y-52214506D01*
X62378000Y-37946000D01*
X62792969Y-37946000D01*
X62825001Y-38107034D01*
X62825000Y-40561030D01*
X62919864Y-41037944D01*
X63281231Y-41578769D01*
X63822055Y-41940136D01*
X64460000Y-42067031D01*
X65097944Y-41940136D01*
X65638769Y-41578769D01*
X66000136Y-41037945D01*
X66095000Y-40561031D01*
X66095000Y-38623238D01*
X66513239Y-38205000D01*
X68028970Y-38205000D01*
X68190000Y-38237031D01*
X68351030Y-38205000D01*
X68351031Y-38205000D01*
X68827945Y-38110136D01*
X69368769Y-37748769D01*
X69459988Y-37612250D01*
X70182238Y-36890000D01*
X74542969Y-36890000D01*
X74669864Y-37527945D01*
X75031231Y-38068769D01*
X75572055Y-38430136D01*
X76048969Y-38525000D01*
X76371031Y-38525000D01*
X76847945Y-38430136D01*
X77388769Y-38068769D01*
X77750136Y-37527945D01*
X77877031Y-36890000D01*
X77750136Y-36252055D01*
X77388769Y-35711231D01*
X76847945Y-35349864D01*
X76371031Y-35255000D01*
X76048969Y-35255000D01*
X75572055Y-35349864D01*
X75031231Y-35711231D01*
X74669864Y-36252055D01*
X74542969Y-36890000D01*
X70182238Y-36890000D01*
X72011239Y-35061000D01*
X86262762Y-35061000D01*
X88923000Y-37721239D01*
X88923001Y-39926966D01*
X88890969Y-40088000D01*
X88993981Y-40605874D01*
X89017865Y-40725945D01*
X89379232Y-41266769D01*
X89515748Y-41357986D01*
X91577746Y-43419985D01*
X91712765Y-43510202D01*
X91549375Y-43619375D01*
X91221161Y-44110582D01*
X91105908Y-44690000D01*
X91221161Y-45269418D01*
X91549375Y-45760625D01*
X91847761Y-45960000D01*
X91549375Y-46159375D01*
X91361273Y-46440889D01*
X91340607Y-46445000D01*
X91340603Y-46445000D01*
X91125000Y-46487886D01*
X91125000Y-46241782D01*
X91147235Y-46129999D01*
X91070654Y-45745000D01*
X91059146Y-45687145D01*
X90808289Y-45311711D01*
X90713519Y-45248388D01*
X90471611Y-45006480D01*
X90471609Y-45006477D01*
X87721614Y-42256483D01*
X87658290Y-42161712D01*
X87282856Y-41910855D01*
X86951784Y-41845001D01*
X86840001Y-41822766D01*
X86728218Y-41845001D01*
X81091781Y-41845001D01*
X80979998Y-41822766D01*
X80719479Y-41874586D01*
X80537144Y-41910855D01*
X80161710Y-42161712D01*
X80098386Y-42256483D01*
X79856479Y-42498390D01*
X79856476Y-42498392D01*
X77186480Y-45168389D01*
X77091712Y-45231711D01*
X76986218Y-45389594D01*
X76840854Y-45607146D01*
X76752765Y-46050000D01*
X76775001Y-46161788D01*
X76775000Y-48965000D01*
X75162877Y-48965000D01*
X74850000Y-48902765D01*
X74407146Y-48990854D01*
X74031712Y-49241712D01*
X73780854Y-49617146D01*
X73692765Y-50060000D01*
X73780854Y-50502854D01*
X73968392Y-50783523D01*
X74008388Y-50823519D01*
X74071711Y-50918289D01*
X74447145Y-51169146D01*
X74778217Y-51235000D01*
X74890000Y-51257235D01*
X75001783Y-51235000D01*
X77358217Y-51235000D01*
X77470000Y-51257235D01*
X77581783Y-51235000D01*
X77912855Y-51169146D01*
X78288289Y-50918289D01*
X78351613Y-50823518D01*
X78482836Y-50692295D01*
X78728289Y-50528289D01*
X78979146Y-50152855D01*
X79045000Y-49821783D01*
X79045000Y-46520131D01*
X81450131Y-44115001D01*
X86369870Y-44115001D01*
X88834935Y-46580067D01*
X88806765Y-46721685D01*
X88829000Y-46833468D01*
X88829000Y-47481867D01*
X87566481Y-48744387D01*
X87471711Y-48807711D01*
X87282924Y-49090252D01*
X87220854Y-49183146D01*
X87132765Y-49626000D01*
X87155000Y-49737783D01*
X87155000Y-50507774D01*
X86926482Y-50736292D01*
X86831711Y-50799616D01*
X86617631Y-51120010D01*
X86580854Y-51175051D01*
X86492765Y-51617905D01*
X86515000Y-51729689D01*
X86515001Y-53821783D01*
X86580855Y-54152855D01*
X86831712Y-54528289D01*
X87207146Y-54779146D01*
X87650000Y-54867235D01*
X88092855Y-54779146D01*
X88468289Y-54528289D01*
X88719146Y-54152855D01*
X88785000Y-53821783D01*
X88785000Y-53625000D01*
X89055874Y-53625000D01*
X89436280Y-53467431D01*
X89544231Y-53359480D01*
X89654126Y-53405000D01*
X90065874Y-53405000D01*
X90446280Y-53247431D01*
X90737431Y-52956280D01*
X90895000Y-52575874D01*
X90895000Y-52164126D01*
X90737431Y-51783720D01*
X90645000Y-51691289D01*
X90645000Y-50525155D01*
X91955154Y-49215001D01*
X93118689Y-49215001D01*
X93196001Y-49230379D01*
X93273313Y-49215001D01*
X93273317Y-49215001D01*
X93502293Y-49169455D01*
X93761954Y-48995954D01*
X93805750Y-48930409D01*
X94320412Y-48415748D01*
X94385954Y-48371954D01*
X94429748Y-48306412D01*
X94429750Y-48306410D01*
X94516918Y-48175953D01*
X94559455Y-48112293D01*
X94605001Y-47883317D01*
X94605001Y-47883313D01*
X94620379Y-47806002D01*
X94605001Y-47728691D01*
X94605001Y-45967313D01*
X94620379Y-45890001D01*
X94605001Y-45812689D01*
X94605001Y-45812685D01*
X94559455Y-45583709D01*
X94385954Y-45324048D01*
X94320407Y-45280250D01*
X94079750Y-45039594D01*
X94079748Y-45039590D01*
X94067075Y-45026917D01*
X94134092Y-44690000D01*
X94018839Y-44110582D01*
X93690625Y-43619375D01*
X93527235Y-43510201D01*
X93798768Y-43328768D01*
X94160135Y-42787945D01*
X94287030Y-42149999D01*
X94160135Y-41512054D01*
X93889985Y-41107746D01*
X92193000Y-39410762D01*
X92193000Y-37205031D01*
X92225031Y-37044000D01*
X92098136Y-36406054D01*
X91864286Y-36056074D01*
X91736769Y-35865231D01*
X91600253Y-35774014D01*
X88209988Y-32383750D01*
X88118769Y-32247231D01*
X87577945Y-31885864D01*
X87101031Y-31791000D01*
X87101030Y-31791000D01*
X86940000Y-31758969D01*
X86778970Y-31791000D01*
X71495025Y-31791000D01*
X71333999Y-31758970D01*
X71172973Y-31791000D01*
X71172969Y-31791000D01*
X70696055Y-31885864D01*
X70155231Y-32247231D01*
X70064014Y-32383747D01*
X67512762Y-34935000D01*
X65997030Y-34935000D01*
X65836000Y-34902969D01*
X65674970Y-34935000D01*
X65674969Y-34935000D01*
X65198055Y-35029864D01*
X64657231Y-35391231D01*
X64566014Y-35527747D01*
X63417748Y-36676014D01*
X63281232Y-36767231D01*
X63190015Y-36903747D01*
X62919865Y-37308055D01*
X62792969Y-37946000D01*
X62378000Y-37946000D01*
X62378000Y-36306178D01*
X66572580Y-28574000D01*
X93971837Y-28574000D01*
X98218001Y-36308086D01*
G04 #@! TD*
M02*
